<svg xmlns:dc="http://purl.org/dc/elements/1.1/" xmlns:cc="http://creativecommons.org/ns#" xmlns:rdf="http://www.w3.org/1999/02/22-rdf-syntax-ns#" xmlns="http://www.w3.org/2000/svg" xmlns:sodipodi="http://sodipodi.sourceforge.net/DTD/sodipodi-0.dtd" xmlns:inkscape="http://www.inkscape.org/namespaces/inkscape" id="Layer_1" width="600" height="400" viewBox="20.838382720947266 200.44020080566406 575.0001831054688 251.00706481933594" inkscape:version="0.91 r13725" sodipodi:docname="du.svg"><metadata id="metadata63"><rdf:RDF><cc:Work><dc:format>image/svg+xml</dc:format><dc:type rdf:resource="http://purl.org/dc/dcmitype/StillImage"/><dc:title/></cc:Work></rdf:RDF></metadata><sodipodi:namedview pagecolor="#000000" bordercolor="#666666" borderopacity="1" objecttolerance="10" gridtolerance="10" guidetolerance="10" inkscape:pageopacity="0" inkscape:pageshadow="2" inkscape:window-width="1920" inkscape:window-height="1056" id="namedview59" showgrid="false" inkscape:zoom=".769" inkscape:cx="127.445" inkscape:cy="68.464" inkscape:window-x="0" inkscape:window-y="24" inkscape:window-maximized="1" inkscape:current-layer="Layer_1"/><g id="g3" transform="matrix(.74226 0 0 .74226 14.649 106.957)"><path d="M213.336 219.74c1.9-18.125.108-54.542-3.497-74.25-.833-4.563-3.793-10.205-11.659-12.04-20.116-4.686-46.717-7.289-75.079-7.506-2.466 20.305-4.547 48.445-4.547 80.231l.031 12.156.006.672 3.016.285c1.443.131 2 .918 2.206 2.375.204 1.435.388 3.215.388 3.215s54.045-.313 89.135-5.138z" id="path5" inkscape:connector-curvature="0" style="fill:#ffffff"/><path d="M104.301 245.216l-3.025-.284c-1.445-.136-2.05-.911-2.205-2.378a187.18 187.18 0 0 0-.389-3.215l.007-.019c-24.071 0-51.209.13-86.297 4.956 4.731 27.104 35.707 88.411 85.61 114.646 2.468-20.305 6.357-69.797 6.357-101.584l-.051-11.467-.003-.674-.004.019z" id="path7" inkscape:connector-curvature="0" style="fill:#ffffff"/><path d="M124.186 239.321c24.065 0 51.449.13 86.537 4.956-4.734 27.104-35.709 88.411-85.615 114.646-2.461-20.305-6.579-69.797-6.579-101.584l.183-11.674-.024-.469 2.894-.264c1.446-.135 2.029-.913 2.206-2.378.163-1.328.389-3.214.389-3.214l.009-.019z" id="path9" inkscape:connector-curvature="0" style="fill:#ffffff"/><g id="g11"><path d="M58.2 184.437c-.13.248-.045.672.09.871.21-.021.717-.168.991-.337.314-.193.405-.345.742-.585-.327-.025-1.778-.032-1.823.051z" id="path13" inkscape:connector-curvature="0" style="fill:#ffffff"/><path d="M57.697 172.41L8.854 219.74c34.876 4.795 65.391 5.137 89.395 5.143h.44s.2-1.619.387-3.213c.17-1.467.761-2.246 2.207-2.379l3.023-.287.003-.053-46.612-46.541zm-4.259 13.884c-.213.785-.205 1.793.893 1.793.852 0 2.338-.73 2.648-.875l.128.279c-.244.1-2.186 1.657-3.752 1.678-.876.014-1.175-.514-1.175-1.028 0-.795.618-1.079 1.258-1.847zm15.899 11.358c0 .846-1.287 1.342-1.547 1.723-.129.19-.237.306-.29.512-.155-.547.136-.997.136-1.389 0-.443-.312-.654-.759-.654-.675 0-2.489 1.637-1.395 4.256-.072-.932.272-1.543.428-1.715.156-.174.3-.514.267-.789.352.648.426.941.426 1.457 0 1.119-.811 1.353-.431 2.184.069.227.144.415.262.708 0-.394.069-.737.138-1.013.068-.275.5-.789.55-.996.052-.208.069-.415.017-.672.362.449.603.838.603 1.564 0 .842-.379 1.325-.484 1.563-.102.243-.222.481-.272.894-.235 1.856-1.151 2.73-2.356 2.73-.756 0-1.322-.118-1.802-.43 0 2.388-2.719 2.201-2.719 3.762 0 .433.293.945.583 1.24.291.289 1.396.699 1.806 1.23-.594.04-1.233.246-1.576.643.976.485.951 1.039 1.078 1.777-.959-.479-1.397-.201-1.645.059-.293.309-.152.718-.488 1.193-.154-.375-.406-.693-.817-.693-.416 0-1.264.742-1.277.984-.036.652-.345.911-.934.986-.438.468-.335.708-.319 1.145-.38-.359-.441-.593-.296-1.246-.441-.18-.389-.549-.257-.875l-.165-.115c-.238.211-.481.512-1.067.234-.226.096-.521.443-.567.856-.154-.985.157-1.327.32-1.472-.1-.225.042-.69.443-.863 0-.1-.037-.148-.05-.196-.33 0-.605-.131-.721-.345-.316-.062-.749.316-.83.545 0-.553.441-1.111.766-1.247.369-.733 1.076-.864 1.5-.438.236.233.8.488 1.374.488.569 0 1.091-.473 1.229-.662.138-.189.153-.224.223-.38.125-.282.364-.616-.223-1.354-.464-.584-1.62-1.717-1.642-2.525-.036-1.332.581-2.107 1.181-2.637h-.475c-.85 0-.922-.531-1.789-.531-.634 0-1.01.637-1.01 1.188 0 .549.098.666.292 1.022.264.489.359.759.29 1.255-.5-.451-1.214-.68-1.782-.177-.221.635-.357.884-.766 1.19-.035-.529-1.123-1.375-2.095-.475-.095.227-.18.732-.858.732-.404 0-.364-.098-.533-.166-.277.24-.511.507-.591.854-.142-.523.044-.979.226-1.197-.065-.229-.045-.793.246-.949-.086-.096-.052-.032-.132-.17-.423.356-1.088.4-1.379-.006-.245.045-.479.217-.74.746-.063-.537.301-1.146.552-1.32.005-.407.563-.762 1.138-.641.044-.068-.01-.111.054-.197.059-.086-.023-.045-.023-.045-.166-.092-.711-.115-.676-.797-.333-.117-.646.039-.874.237.225-.583.714-.769 1.087-.804.136-.256.553-.285.767-.285.398 0 .666.189.732.439.402.713 1.313.949 2.207.949.449 0 .829-.341.829-.854 0-.516-.874-2.018-.874-2.708 0-.685 1.232-2.007 2.06-2.007 2.517 0 3.097 1.052 3.662 1.052.793 0 .899-.165 1.021-.29-1.186-1.458-1.941-1.43-3.071-2.205-.568-.393-.862-1.05-.948-1.665-.699.163-1.381 1.097-1.711 1.679-.156-.275-.396-.461-.687-.461-.56 0-.96.729-1.222 1.352-.162-.713-.589-1.372-1.404-1.372-.458 0-.978.194-1.108.493a1.052 1.052 0 0 1-1.235.562c-.242.171-.465.241-.635.988-.23-.937.001-1.111.133-1.343-.133-.616.123-.838.24-.987l-.065-.164c-.365.12-.905.077-1.064-.237-.411-.021-.529.032-.882.559.069-.594.409-1.086.782-1.229.141-.351.625-.493 1.01-.493.033-.099.062-.099.081-.18a.829.829 0 0 1-.412-.83c-.31-.357-.65-.134-.933-.029.494-.516 1.079-.707 1.472-.478.85-.283 1.145.114 1.224.59.098.546.95.62 1.832.62 1.929 0 4.992-1.796 4.77-3.221-.457-.114-.507-.098-.864-.098-1.032 0-2.32 1.291-3.334 1.309.508-.575.194-1.154.474-1.582-.557-.014-1.125.336-2.189.24.358-.213.606-.963.606-1.226 0-.262 0-.786-1.146-.786-.113.031-.423.131-.652.131-.269 0-1.026-.068-1.026-.67-.377-.08-.652.018-1.057.32.08-.416.862-.934 1.091-.969.159-.318.478-.459.635-.441.032-.166.026-.015.035-.212-.388-.052-.881-.194-.871-.841-.275-.253-.45-.309-1.068-.145.765-.574 1.039-.49 1.288-.393.563-.422 1.021-.191 1.18-.012.067-.084.128-.098.158-.163-.132-.41-.055-.81.123-.987-.013-.445-.219-.582-.631-.669.847.017 1.19.211 1.468.522.488.064.792.492.801.8.014.8-.833 1.348.8 2.192.508.26 1.225.521 1.946.735.722.21 1.612.536 1.974.536-.281-.441-.164-.883-.623-1.323.521-.034 1.16.146 1.634.242-.099-.638.061-.64-.364-1.033.359.05.874.058 1.15.087 1.859.198 1.885-.723 2.247-1.894-.633.038-1.702.192-2.713.864.098-.346-.012-.625-.012-.92 0-.555.437-.668.652-.668.099 0 .375-.043.585-.043.408 0 .976-.459.71-1.365-.125-.434-.457-.705-.836-.592-.276.078-.341.072-.746.224-.312.116-.41.358-.444.687-.063-.148-.176-.566-.229-.67-.061-.123-.103-.197-.216-.479-.035-.09-.026-.09-.076-.203-.194-.456.114-.84.508-.916a15.1 15.1 0 0 0 1.177-.294c.644-.193.843-.445.98-.784.144-.359.233-.497.826-.497.185 0 .859.015 1.167.015.898 0 1.912-.731 1.578-1.51.628.111.878 1.116.724 1.51.292 0 1.27-.19 1.493-.377-.004.676-.533 1.512-.91 1.719.481.05 1.327-.021 1.582-.242-.156.514-.705 1.613-1.051 1.77.839.289 1.387.741 1.764 1.779-.637-.262-1.013.055-1.569-.031 1.146 1.34 1.569 3.377 1.902 3.887-.309-.17-.93-.516-1.393-.685.476 1.11-.227 2.207-.121 2.798-.361-.207-.828-.465-.979-.758-.187.448-.582 1.326-.431 2.458-.291-.31-.789-.549-1.012-.722-.429.617-.688 1.016-.688 2.597 0 2.161 1.007 4.229 1.446 5.048.669 1.256.835 2.325.943 2.75.213.844.816 1.391 1.616 1.391.774 0 1.424-.705 1.424-1.563 0-1.563-1.907-2.558-1.907-5.308 0-1.805 1.391-2.705 1.429-3.855.035-1.018-.899-.387-1.595-.84.894-.178 1.419-1.167 2.213-1.122.701.042.862.413.898.771.051.49-.268 1.061-.37 1.266.777-.67 1.123-1.695 1.123-2.212 0-.772-1.087-1.632-.807-3.111.041-.2.036-.171.085-.292.321 1.667 2.685 2.096 2.685 3.745 0 1.554-1.342 1.261-2.112 2.338.838-.342 1.788-.174 1.788.751z" id="path15" inkscape:connector-curvature="0" style="fill:#ffffff"/></g><g id="g17"><path d="M99.817 125.945c-28.461.242-55.177 3.019-75.083 7.506-7.877 1.777-10.806 7.48-11.658 12.04-2.414 12.917-5.538 38.453-4.55 64.709 4.842-4.607 49.465-48.005 49.465-48.005l46.368 46.296c0-31.788-2.079-62.241-4.542-82.546zM30.72 140.918c-.215.799-.206 1.824.909 1.824.866 0 2.379-.743 2.694-.891l.13.285c-.25.101-2.225 1.685-3.817 1.707-.893.013-1.198-.525-1.198-1.049.001-.808.634-1.094 1.282-1.876zm16.18 11.556c0 .86-1.31 1.365-1.575 1.751-.131.194-.241.313-.296.521-.157-.555.139-1.013.139-1.413 0-.452-.317-.665-.772-.665-.687 0-2.53 1.662-1.418 4.329-.075-.947.275-1.569.436-1.745.157-.177.304-.523.268-.802.362.66.436.955.436 1.481 0 1.141-.822 1.377-.438 2.222.072.232.146.421.267.718 0-.398.071-.748.142-1.029.068-.278.505-.8.558-1.015.055-.213.07-.422.019-.683.366.455.611.853.611 1.591 0 .856-.386 1.349-.493 1.593-.1.247-.225.49-.275.907-.239 1.89-1.17 2.778-2.396 2.778-.77 0-1.346-.121-1.839-.435 0 2.429-2.763 2.237-2.763 3.829 0 .438.298.96.595 1.258.295.296 1.418.711 1.834 1.251-.602.043-1.255.252-1.602.655.994.494.969 1.056 1.095 1.81-.977-.487-1.422-.203-1.673.058-.299.317-.156.732-.496 1.217-.159-.385-.414-.708-.833-.708-.423 0-1.286.76-1.299 1.003-.035.663-.35.927-.951 1.002-.447.479-.34.721-.324 1.167-.386-.366-.449-.604-.302-1.271-.45-.18-.395-.558-.26-.888l-.168-.118c-.24.216-.489.521-1.085.239-.23.099-.527.449-.577.87-.158-1.002.161-1.35.326-1.495-.104-.229.042-.703.449-.881 0-.099-.035-.148-.051-.198-.332 0-.614-.134-.731-.348-.323-.067-.763.318-.846.552 0-.562.449-1.133.781-1.269.374-.746 1.091-.881 1.525-.448.239.24.813.499 1.396.499.579 0 1.111-.482 1.251-.673.139-.193.159-.229.225-.387.129-.286.374-.625-.225-1.38-.471-.594-1.649-1.747-1.672-2.568-.036-1.357.593-2.144 1.204-2.686h-.485c-.864 0-.939-.54-1.82-.54-.645 0-1.027.646-1.027 1.207s.101.678.296 1.041c.271.5.366.772.294 1.278-.509-.459-1.233-.692-1.812-.182-.224.652-.364.9-.779 1.211-.035-.538-1.14-1.396-2.128-.48-.1.229-.186.745-.876.745-.409 0-.369-.1-.542-.169-.282.245-.518.518-.602.868-.145-.532.044-.996.231-1.219-.065-.229-.048-.805.251-.964-.091-.097-.054-.033-.136-.173-.43.366-1.107.407-1.404-.007-.249.048-.488.226-.752.759-.064-.543.308-1.163.561-1.343.005-.418.574-.774 1.159-.648.043-.07-.007-.119.055-.205.062-.087-.021-.047-.021-.047-.169-.093-.725-.116-.688-.807-.338-.122-.659.039-.891.238.23-.594.728-.782 1.107-.819.14-.257.565-.286.781-.286.406 0 .678.192.746.446.41.727 1.335.968 2.246.968.458 0 .841-.349.841-.872 0-.526-.89-2.052-.89-2.755 0-.696 1.254-2.039 2.097-2.039 2.559 0 3.149 1.069 3.725 1.069.807 0 .914-.169 1.042-.294-1.21-1.484-1.98-1.455-3.131-2.247-.578-.399-.874-1.066-.962-1.693-.715.167-1.406 1.119-1.741 1.711-.159-.281-.403-.471-.698-.471-.569 0-.979.743-1.247 1.376-.164-.726-.595-1.398-1.428-1.398-.466 0-.995.202-1.125.503a1.07 1.07 0 0 1-1.255.572c-.249.175-.474.244-.647 1.006-.232-.954.002-1.131.135-1.366-.135-.627.127-.854.243-1.002l-.065-.17c-.372.119-.922.079-1.085-.241-.417-.019-.536.033-.896.57.071-.608.415-1.106.797-1.253.144-.356.637-.501 1.028-.501.033-.1.063-.102.082-.186a.842.842 0 0 1-.419-.842c-.315-.365-.66-.138-.949-.032.503-.521 1.095-.718 1.497-.485.865-.287 1.165.116 1.247.601.098.555.965.632 1.862.632 1.963 0 5.081-1.829 4.853-3.275-.465-.119-.515-.101-.879-.101-1.048 0-2.359 1.312-3.391 1.329.515-.583.198-1.174.481-1.607-.566-.017-1.145.34-2.228.245.365-.217.616-.982.616-1.248 0-.267 0-.802-1.165-.802-.116.034-.429.134-.665.134-.274 0-1.046-.068-1.046-.679-.382-.084-.661.016-1.075.324.083-.42.877-.952 1.113-.989.161-.324.484-.466.644-.447.034-.166.028-.015.039-.214-.396-.056-.898-.199-.886-.855-.281-.26-.458-.312-1.087-.149.779-.583 1.057-.495 1.311-.401.571-.424 1.038-.194 1.2-.008.066-.085.128-.098.16-.166-.132-.418-.056-.825.125-1.007-.013-.45-.223-.59-.641-.68.861.015 1.211.214 1.492.532.495.065.808.499.816.813.015.815-.848 1.371.812 2.231.518.264 1.248.532 1.981.747.734.215 1.641.547 2.009.547-.285-.449-.166-.896-.637-1.347.536-.036 1.183.149 1.667.246-.103-.648.061-.65-.372-1.05.365.052.888.059 1.173.089 1.89.202 1.917-.736 2.284-1.927-.646.035-1.732.196-2.761.883.1-.355-.012-.637-.012-.939 0-.564.446-.678.664-.678.103 0 .38-.046.598-.046.413 0 .992-.469.721-1.391-.129-.44-.465-.716-.851-.601-.283.082-.347.073-.762.227-.316.116-.416.364-.449.7-.063-.153-.18-.578-.233-.682-.062-.127-.105-.206-.219-.487-.036-.089-.026-.09-.079-.208-.198-.463.115-.854.516-.93.333-.069.866-.204 1.196-.3.659-.199.86-.453 1-.799.146-.364.235-.507.839-.507.191 0 .875.018 1.188.018.917 0 1.947-.747 1.608-1.538.64.114.893 1.134.735 1.538.297 0 1.292-.194 1.519-.384-.005.688-.541 1.538-.924 1.748.488.051 1.349-.021 1.609-.245-.158.522-.718 1.641-1.07 1.802.853.293 1.413.751 1.795 1.811-.649-.267-1.031.054-1.596-.033 1.165 1.363 1.597 3.438 1.931 3.951-.312-.168-.943-.521-1.415-.693.483 1.13-.231 2.243-.125 2.846-.363-.211-.837-.473-.993-.77-.193.458-.594 1.348-.438 2.502-.296-.316-.805-.56-1.03-.737-.437.629-.702 1.033-.702 2.644 0 2.198 1.024 4.301 1.471 5.134.682 1.281.852 2.367.96 2.801.215.858.83 1.415 1.643 1.415.789 0 1.453-.717 1.453-1.591 0-1.591-1.943-2.601-1.943-5.4 0-1.838 1.414-2.753 1.454-3.923.036-1.036-.915-.393-1.622-.856.907-.179 1.442-1.183 2.251-1.14.714.042.878.417.914.786.054.497-.272 1.077-.377 1.283.79-.68 1.142-1.723 1.142-2.248 0-.788-1.105-1.66-.821-3.167.042-.204.039-.174.089-.294.328 1.692 2.73 2.13 2.73 3.808 0 1.583-1.366 1.282-2.145 2.38.85-.351 1.818-.176 1.818.764zm29.397-14.699c-.227.834-.216 1.902.946 1.902.902 0 2.479-.774 2.81-.928l.134.296c-.261.105-2.319 1.757-3.98 1.779-.928.014-1.245-.546-1.245-1.091-.001-.842.658-1.143 1.335-1.958zm16.861 12.045c0 .895-1.365 1.424-1.641 1.827-.135.201-.251.326-.308.541-.165-.579.145-1.054.145-1.472 0-.469-.331-.691-.807-.691-.715 0-2.637 1.732-1.477 4.511-.078-.987.287-1.638.453-1.818.167-.184.318-.546.281-.835.379.686.451.993.451 1.542 0 1.189-.857 1.435-.454 2.315.075.242.151.439.276.75 0-.417.076-.782.147-1.073.072-.291.529-.837.584-1.058a1.57 1.57 0 0 0 .016-.713c.384.476.639.889.639 1.658 0 .893-.4 1.407-.512 1.661-.106.255-.236.509-.291.945-.246 1.972-1.218 2.896-2.497 2.896-.802 0-1.401-.124-1.914-.453 0 2.532-2.88 2.333-2.88 3.989 0 .457.31 1.002.62 1.314.308.309 1.477.741 1.913 1.305-.628.044-1.308.261-1.672.683 1.038.514 1.011 1.098 1.144 1.884-1.018-.508-1.484-.213-1.742.059-.312.332-.161.763-.518 1.271-.165-.401-.432-.738-.869-.738-.439 0-1.34.79-1.353 1.045-.037.692-.366.965-.99 1.045-.468.499-.357.751-.338 1.218-.403-.383-.469-.632-.315-1.324-.468-.192-.41-.584-.271-.928l-.176-.123c-.251.226-.509.541-1.132.25-.239.101-.553.469-.601.907-.162-1.045.165-1.406.339-1.561-.106-.235.044-.731.468-.917 0-.103-.037-.157-.052-.206-.347 0-.638-.141-.765-.362-.333-.068-.792.333-.878.575 0-.584.465-1.181.812-1.321.391-.779 1.139-.919 1.591-.465.249.246.847.519 1.455.519.605 0 1.157-.501 1.305-.702.146-.203.165-.236.235-.405.131-.298.386-.652-.235-1.439-.492-.616-1.72-1.819-1.741-2.675-.039-1.413.617-2.233 1.253-2.796h-.503c-.902 0-.98-.565-1.897-.565-.674 0-1.072.675-1.072 1.261 0 .582.105.705.311 1.083.279.521.381.804.304 1.332-.53-.479-1.287-.721-1.887-.19-.233.678-.38.937-.812 1.266-.036-.565-1.183-1.458-2.215-.505-.103.24-.191.777-.912.777-.426 0-.383-.102-.564-.178-.295.257-.541.541-.627.907-.151-.555.045-1.036.24-1.27-.07-.242-.049-.842.26-1.008-.091-.101-.058-.035-.141-.178-.445.38-1.155.425-1.46-.006-.264.05-.512.23-.787.79-.067-.567.319-1.215.586-1.4.004-.431.598-.809 1.205-.676.047-.074-.008-.124.059-.213.063-.088-.021-.048-.021-.048-.179-.096-.758-.12-.718-.844-.353-.125-.686.042-.928.251.239-.618.756-.817 1.155-.854.141-.271.586-.3.812-.3.422 0 .707.201.775.465.428.756 1.394 1.008 2.344 1.008.473 0 .875-.362.875-.907 0-.549-.932-2.141-.932-2.873 0-.729 1.308-2.127 2.184-2.127 2.668 0 3.282 1.114 3.883 1.114.84 0 .954-.174 1.084-.308-1.257-1.547-2.059-1.514-3.26-2.339-.604-.416-.913-1.11-1.002-1.764-.745.174-1.466 1.162-1.815 1.781-.166-.292-.421-.491-.73-.491-.593 0-1.017.775-1.297 1.433-.17-.755-.62-1.454-1.489-1.454-.487 0-1.036.208-1.173.524a1.114 1.114 0 0 1-1.308.595c-.26.183-.495.256-.674 1.047-.244-.991.002-1.18.14-1.422-.14-.651.129-.889.252-1.047l-.07-.175c-.387.127-.959.083-1.127-.252-.435-.02-.562.035-.936.595.076-.633.433-1.152.831-1.304.15-.374.664-.524 1.072-.524.034-.105.066-.105.084-.192a.88.88 0 0 1-.437-.879c-.328-.38-.689-.142-.989-.033.526-.544 1.144-.747 1.562-.506.9-.297 1.213.122 1.299.624.102.581 1.006.66 1.939.66 2.047 0 5.296-1.904 5.06-3.414-.484-.121-.538-.105-.917-.105-1.094 0-2.459 1.371-3.537 1.388.541-.608.208-1.225.503-1.676-.589-.015-1.191.356-2.321.255.382-.226.641-1.022.641-1.298 0-.28 0-.835-1.213-.835-.119.032-.447.139-.692.139-.287 0-1.091-.075-1.091-.709-.396-.087-.69.017-1.118.338.085-.438.913-.992 1.16-1.029.167-.341.504-.487.669-.468.036-.176.029-.017.04-.226-.412-.054-.937-.205-.925-.892-.292-.269-.475-.327-1.131-.155.813-.605 1.104-.515 1.367-.416.595-.445 1.083-.201 1.25-.009.071-.089.135-.104.166-.175-.138-.433-.057-.857.131-1.046-.015-.471-.231-.618-.669-.709.898.016 1.261.226 1.555.555.519.068.842.522.853.848.014.85-.883 1.429.846 2.323.539.276 1.302.553 2.065.78.764.225 1.711.569 2.093.569-.297-.466-.176-.935-.662-1.404.556-.035 1.23.156 1.734.26-.104-.678.064-.681-.386-1.097.382.053.924.06 1.219.092 1.972.211 2-.766 2.383-2.01-.673.038-1.805.206-2.879.921.105-.372-.011-.667-.011-.979 0-.589.463-.708.693-.708.104 0 .396-.046.617-.046.435 0 1.037-.489.755-1.45-.134-.458-.484-.746-.886-.626-.294.084-.363.077-.792.237-.333.121-.435.377-.469.727-.067-.158-.187-.6-.244-.711-.064-.131-.107-.21-.227-.506-.039-.093-.029-.095-.083-.214-.207-.486.122-.889.537-.971.347-.071.903-.211 1.248-.314.688-.205.896-.471 1.04-.832.154-.378.247-.528.876-.528.198 0 .913.017 1.239.017.956 0 2.03-.777 1.676-1.603.667.121.932 1.185.768 1.603.308 0 1.349-.202 1.583-.4-.004.717-.564 1.602-.965 1.824.51.052 1.408-.022 1.677-.256-.166.545-.748 1.709-1.113 1.875.888.306 1.472.786 1.87 1.89-.676-.278-1.073.056-1.664-.035 1.215 1.42 1.666 3.583 2.015 4.119-.329-.176-.985-.542-1.475-.724.502 1.178-.243 2.341-.13 2.969-.381-.222-.876-.494-1.035-.805-.203.478-.621 1.405-.457 2.607-.31-.33-.841-.585-1.076-.768-.455.657-.73 1.079-.73 2.755 0 2.292 1.066 4.482 1.533 5.351.711 1.335.888 2.468 1 2.919.225.894.868 1.477 1.715 1.477.819 0 1.511-.747 1.511-1.66 0-1.659-2.021-2.711-2.021-5.628 0-1.914 1.474-2.869 1.515-4.089.039-1.08-.953-.409-1.69-.892.945-.188 1.503-1.235 2.346-1.188.743.043.912.437.952.816.054.519-.285 1.125-.394 1.342.823-.71 1.189-1.798 1.189-2.348 0-.82-1.151-1.727-.852-3.297.04-.214.037-.181.09-.309.338 1.766 2.843 2.222 2.843 3.971 0 1.649-1.419 1.334-2.233 2.478.884-.361 1.894-.183 1.894.799z" id="path19" inkscape:connector-curvature="0" style="fill:#ffffff"/><path d="M35.564 139.029c-.133.251-.044.682.09.883.216-.021.731-.168 1.009-.342.323-.199.413-.352.757-.595-.331-.025-1.807-.034-1.856.054z" id="path21" inkscape:connector-curvature="0" style="fill:#ffffff"/><path d="M81.346 135.807c-.139.261-.048.711.094.921.225-.022.76-.177 1.051-.358.335-.205.429-.365.788-.618-.344-.027-1.884-.034-1.933.055z" id="path23" inkscape:connector-curvature="0" style="fill:#ffffff"/></g><g id="g25"><path d="M296.286 366.078c3.412 0 7.229 0 11.367-.311v2.482s-.622-.105-1.758-.105c-7.646 0-7.646 4.543-7.646 11.258v30.166c0 3.131-.101 6.137-.606 8.623-2.987 14.674-14.195 18.543-25.913 18.543-15.431 0-24.88-7.811-27.481-18.832-.416-1.77-.748-5.277-.748-9.492v-30.762c0-7.127-1.345-9.195-9.919-9.396v-2.379c4.856.312 9.919.416 15.29.416 5.374 0 10.431-.104 15.289-.416v2.379h-1.547c-7.234 0-8.368 3.513-8.368 9.396v32.449c0 3.779.19 7.041 1 9.807 2.435 8.312 8.729 13.219 18.434 13.219 11.785 0 18.996-4.65 21.144-15.281.469-2.316.536-4.926.536-7.838v-30.602c0-8.676-.518-11.15-9.297-11.15v-2.481c2.889.206 6.298.307 10.223.307z" id="path27" inkscape:connector-curvature="0" style="fill:#ffffff"/><path d="M340.193 388.6c9.142 0 15.174 4.646 15.174 13.532v25.513c0 4.135 2.06 5.268 7.435 5.371v2.174c-4.646-.312-8.561-.521-11.866-.521-3.103 0-7.128.105-11.98.521v-2.174c5.265-.104 7.434-1.34 7.434-5.166v-25.095c0-7.342-3.199-10.95-9.711-10.95-7.021 0-13.016 6.196-13.016 14.868v20.972c0 4.135 2.064 5.268 7.438 5.371v2.174c-4.646-.312-8.559-.521-11.867-.521-3.1 0-7.128.105-11.982.521v-2.174c5.271-.104 7.335-1.34 7.335-5.166 0-.102.104-.723.104-1.65v-24.793c0-5.994-.932-7.953-6.508-7.953h-.931v-2.065c4.03 0 8.665-1.447 14.447-3.929.776 1.834 1.35 4.49 1.438 10.713.942-1.677 5.519-9.573 17.056-9.573z" id="path29" inkscape:connector-curvature="0" style="fill:#ffffff"/><path d="M383.78 426.201v1.445c0 3.93 1.958 5.168 7.023 5.371v2.174c-3.928-.312-7.854-.521-11.57-.521-3.72 0-7.425.207-11.247.521v-2.174c4.854-.203 6.816-1.441 6.816-5.166v-24.894-2.584c0-5.059-.308-6.918-5.683-6.918h-.823v-2.065c4.542-.41 9.591-1.757 15.482-3.929l.002 38.74zm-.212-59.399c0 2.892-2.374 5.273-5.367 5.273-2.997 0-5.271-2.385-5.271-5.273 0-2.995 2.272-5.375 5.271-5.375 2.893 0 5.367 2.38 5.367 5.375z" id="path31" inkscape:connector-curvature="0" style="fill:#ffffff"/><path d="M402.188 389.939c3.412 0 7.896-.1 11.198-.412v2.275c-3.815 0-5.476.514-5.476 2.895 0 1.236.621 3.92 2.375 7.955l9.611 22.203 4.543-11.773c3.513-9.301 5.894-15.08 5.894-17.768 0-2.381-1.76-3.512-5.371-3.512v-2.275c2.479.213 5.712.412 8.086.412 2.168 0 6.019-.2 8.603-.412v2.275h-.639c-5.394 0-6.854 3.609-9.852 11.055l-13.327 33.264h-2.274l-16.741-39.568c-1.346-3.098-2.916-4.747-8.171-4.747v-2.277c3.923.312 8.236.41 11.541.41z" id="path33" inkscape:connector-curvature="0" style="fill:#ffffff"/><path d="M451.629 406.781c-.21 2.172-.312 3.82-.312 5.168 0 12.395 6.923 20.658 16.525 20.658 5.478 0 9.095-1.965 13.323-6.818l1.862 1.963c-4.232 5.994-10.223 8.883-18.076 8.883-14.252 0-23.538-10.225-23.538-23.242 0-13.113 9.695-24.995 23.848-24.995 11.265 0 19.217 7.231 19.217 17.452v.934l-32.849-.003zm23.553-5.373c0-6.922-4.337-10.846-10.126-10.846-6.609 0-11.776 4.959-12.81 13.219h22.626c.202-1.34.31-2.166.31-2.373z" id="path35" inkscape:connector-curvature="0" style="fill:#ffffff"/><path d="M519.767 389.117c5.266 0 8.37 2.271 8.37 5.473 0 2.584-1.557 4.131-3.619 4.131-4.65 0-2.272-5.991-8.06-5.991-5.68 0-10.429 5.526-10.429 13.944v20.972c0 4.135 2.062 5.268 7.432 5.371v2.174c-4.648-.312-8.679-.521-11.982-.521-3.097 0-7.01.105-11.862.521v-2.174c5.263-.104 7.438-1.34 7.438-5.166v-25.41c0-6.812-1.66-9.092-7.339-9.092h-1.138v-2.066c4.752-.619 9.703-1.854 14.97-3.512 1.301 3.463 1.749 9.752 1.639 11.332 2.083-5.228 7.226-9.986 14.58-9.986z" id="path37" inkscape:connector-curvature="0" style="fill:#ffffff"/><path d="M560.997 394.436l.1 6.675h-2.027c-1.136-5.988-5.231-10.445-12.555-10.445-4.55 0-7.732 2.914-7.732 6.318 0 5.092 3.643 6.062 10.122 9.293 3.158 1.6 5.944 2.805 8.229 4.219 4.2 2.602 6.702 5.916 6.702 11.143 0 8.887-6.479 14.998-17.165 14.998-4.656 0-9.103-1.549-12.507-4.232l-1.4 2.895h-1.77c.113-3.824.113-6.096.113-6.92 0-1.656-.113-4.029-.113-7.232h1.798c1.596 8.156 6.611 13.02 13.999 13.02 6.415 0 9.888-4.053 9.888-8.389 0-5.396-3.686-6.986-10.95-10.396-8.644-4.166-13.878-6.811-13.878-14.488 0-7.047 6.827-12.49 14.326-12.49 5.515 0 7.783.926 11.308 2.783l2.155-2.58h1.477l-.12 5.828z" id="path39" inkscape:connector-curvature="0" style="fill:#ffffff"/><path d="M587.212 426.201v1.445c0 3.93 1.965 5.168 7.029 5.371v2.174c-3.93-.312-7.64-.521-11.362-.521-3.718 0-7.425.207-11.248.521v-2.174c4.854-.203 6.823-1.441 6.823-5.166v-24.894-2.584c0-5.059-.316-6.918-5.683-6.918h-.832v-2.065c4.546-.41 9.387-1.757 15.271-3.929l.002 38.74zm.007-59.399c0 2.892-2.374 5.273-5.374 5.273-2.995 0-5.264-2.385-5.264-5.273 0-2.995 2.269-5.375 5.264-5.375 2.889 0 5.374 2.38 5.374 5.375z" id="path41" inkscape:connector-curvature="0" style="fill:#ffffff"/><path d="M613.824 378.27v11.362h11.558v3.097h-11.451v31.099c0 6.195 1.745 9.297 6.505 9.297 2.782 0 5.464-1.539 7.526-4.736l1.667 1.533c-2.478 4.441-6.76 6.303-11.974 6.303-8.423 0-12.499-4.342-12.499-12.91V392.73h-4.854v-1.652c4.542-2.682 8.565-7.022 11.766-12.807l1.756-.001z" id="path43" inkscape:connector-curvature="0" style="fill:#ffffff"/><path d="M637.835 389.939c1.547 0 5.572-.1 11.874-.412v2.275c-4.126.102-5.988.721-5.988 3.408 0 .619.308 1.65.724 2.789l10.328 26.648 9.817-23.76a13.893 13.893 0 0 0 1.031-5.165c0-2.793-1.55-3.82-5.374-3.923v-2.276c3.099.213 5.579.414 7.232.414 2.066 0 5.509-.201 8.194-.414v2.276h-.31c-4.546 0-5.203 2.27-7.271 7.332l-13.326 32.127c-9.495 23.033-13.526 32.852-18.281 32.852-1.653 0-3.213-1.139-3.213-3 0-3.385 3.479-4.178 6-5.678 2.58-1.533 4.781-6.158 9.195-16.113l1.922-4.395-14.834-35.584c-1.86-4.444-2.168-7.541-7.431-7.541v-2.276c3.926.318 7.024.416 9.711.416z" id="path45" inkscape:connector-curvature="0" style="fill:#ffffff"/></g><path d="M228.911 336.658c13.331-.322 15.419-3.535 15.419-14.609v-71.315c0-11.104-2.089-14.317-15.419-14.637V232.4c6.102.16 11.564.318 16.545.318 12.368 0 19.542-.639 30.357-.639 22.633 0 38.503 5.871 48.33 17.233 7.4 8.55 11.569 20.002 11.569 35.419 0 17.342-5.353 30.956-14.673 40.409-9.748 9.885-23.912 15.211-43.947 15.211-9.797 0-20.076-.479-30.515-.479-5.782 0-11.564 0-17.667.322l.001-3.536zm31.962-22.325c0 14.773 3.373 22.002 19.271 22.002 25.855 0 36.292-19.606 36.292-51.403 0-37.12-14.037-49.32-42.877-49.32-9.634 0-12.685 0-12.685 8.83v69.891z" id="path47" inkscape:connector-curvature="0" style="fill:#ffffff"/><path d="M354.663 269.526c3.371 0 7.709-.161 12.53-.319v51.071c0 10.916 5.135 16.541 15.093 16.541 10.924 0 20.238-9.635 20.238-23.129v-30.514-2.889c0-4.976-3.374-7.551-10.277-7.551h-1.288v-3.529c4.976.156 9.477.318 13.328.318 3.375 0 7.546-.162 12.365-.318v53.157c0 8.672 1.256 14.377 9.278 14.377.646 0 .867.041 1.516.041v3.373c-7.843-.724-13.766-.64-24.061-.15L403 327.343c-6.262 9.957-14.774 14.453-26.176 14.453-18.468 0-23.771-8.836-23.771-25.053v-33.57c0-1.6-.156-2.565-.156-2.887 0-4.977-3.375-7.552-10.118-7.552h-1.286v-3.53c4.978.161 9.315.322 13.17.322z" id="path49" inkscape:connector-curvature="0" style="fill:#ffffff"/><path d="M480.42 268.565c8.202 0 12.861 4.496 12.861 8.908 0 4.017-2.518 6.026-5.252 6.026-8.188 0-4.165-9.314-12.745-9.314-8.117 0-16.217 7.708-16.217 21.686v32.6c0 6.423 3.212 8.189 11.557 8.349v3.377c-7.225-.483-13.486-.803-18.626-.803-4.823 0-11.081.155-18.63.803v-3.377c8.189-.159 11.562-2.088 11.562-8.024v-39.514c0-10.6-2.567-14.132-11.403-14.132h-1.762v-3.217c7.388-.96 14.969-1.966 23.155-4.534 2.071 4.678 2.723 13.786 2.723 16.779 2.868-6.705 10.547-15.613 22.777-15.613z" id="path51" inkscape:connector-curvature="0" style="fill:#ffffff"/><path d="M515.021 281.945c4.854-9.148 14.772-14.184 25.858-14.184 15.09 0 23.767 7.797 23.767 21.037V328.473c0 6.422 3.209 8.187 11.562 8.349v3.377c-7.229-.484-13.488-.804-18.63-.804-4.816 0-11.082.153-18.627.804v-3.377c8.193-.162 11.562-2.091 11.562-8.027V289.77c0-11.407-4.976-17.027-15.095-17.027-10.921 0-20.396 9.639-20.396 23.131v32.602c0 6.422 3.215 8.188 11.564 8.348v3.379c-7.23-.484-13.491-.805-18.638-.805-4.812 0-11.074.154-18.627.805v-3.379c8.19-.16 11.563-2.088 11.563-8.025v-87.078c0-7.064-3.214-9.635-11.563-9.797v-2.889c4.976-.324 13.49-1.766 25.697-4.658l.003 57.568z" id="path53" inkscape:connector-curvature="0" style="fill:#ffffff"/><path d="M623.498 331.162c-3.477 3.746-9.147 10.324-24.04 10.324-12.115 0-20.101-6.412-20.101-16.119 0-10.602 8.668-17.104 26.332-24.008l8.519-3.212c7.386-2.892 9.795-2.729 9.795-8.353v-3.485c0-10.12-3.853-15.497-15.9-15.497-12.46 0-12.838 5.368-13.37 9.898-.342 2.857-1.079 6.162-6.338 6.162-3.053 0-5.193-2.57-5.193-5.942 0-6.911 8.935-13.332 26.509-13.332 18.794 0 27.622 5.944 27.622 18.47v40.793c0 6.27 2.016 8.889 5.385 8.889 2.25 0 4.052-1.031 5.86-3.43l2.091 2.252c-3.38 5.301-7.88 6.906-14.145 6.906-7.439.001-11.942-4.244-13.026-10.316zm-29.21-8.633c0 7.549 4.012 13.221 11.244 13.221 10.726 0 18.146-7.037 18.146-15.02v-22.904c-19.911 7.867-29.39 14.748-29.39 24.703z" id="path55" inkscape:connector-curvature="0" style="fill:#ffffff"/><path d="M748.256 267.599c16.221 0 23.179 8.729 23.179 23.283v37.588c0 6.423 3.207 8.189 11.565 8.349v3.377c-7.232-.483-13.495-.803-18.634-.803-4.812 0-11.082.155-18.631.803v-3.377c8.19-.159 11.399-2.088 11.399-8.024 0-.164.164-1.129.164-2.576V288.48c0-10.275-4.817-15.74-13.971-15.74-11.28 0-18.954 8.084-18.954 22.541v33.193c0 6.259 3.213 8.188 11.242 8.349v3.377c-6.902-.484-13.009-.803-18.304-.803-5.786 0-11.562.316-17.827.803v-3.377c7.542-.322 10.758-2.246 10.758-8.025v-40.316c0-10.12-4.815-15.74-13.979-15.74-11.11 0-18.94 8.834-18.94 23.287v32.445c0 6.423 3.21 8.188 11.562 8.35v3.377c-7.226-.484-13.495-.804-18.627-.804-4.822 0-10.417.153-17.962.804v-3.377c8.187-.162 10.891-2.091 10.891-8.027V287.682c0-9.316-1.442-12.363-10.118-12.363h-1.439V272.1c6.268 0 13.651-2.249 22.645-6.103 1.29 4.817 1.9 9.994 1.9 14.813 0 .698.055 1.325 0 1.446 4.275-8.809 14.319-14.818 25.401-14.818 16.042 0 21.295 10.391 21.361 15.137 2.363-6.221 10.765-14.976 25.319-14.976z" id="path57" inkscape:connector-curvature="0" style="fill:#ffffff"/></g></svg>