<?xml version="1.0" encoding="UTF-8"?>
<!DOCTYPE svg PUBLIC "-//W3C//DTD SVG 1.1//EN" "http://www.w3.org/Graphics/SVG/1.1/DTD/svg11.dtd">
<svg version="1.2" width="175.5mm" height="75.2mm" viewBox="0 0 17550 7520" preserveAspectRatio="xMidYMid" fill-rule="evenodd" stroke-width="28.222" stroke-linejoin="round" xmlns="http://www.w3.org/2000/svg" xmlns:ooo="http://xml.openoffice.org/svg/export" xmlns:xlink="http://www.w3.org/1999/xlink" xmlns:presentation="http://sun.com/xmlns/staroffice/presentation" xmlns:smil="http://www.w3.org/2001/SMIL20/" xmlns:anim="urn:oasis:names:tc:opendocument:xmlns:animation:1.0" xml:space="preserve">
 <defs class="ClipPathGroup">
  <clipPath id="presentation_clip_path" clipPathUnits="userSpaceOnUse">
   <rect x="0" y="0" width="17550" height="7520"/>
  </clipPath>
  <clipPath id="presentation_clip_path_shrink" clipPathUnits="userSpaceOnUse">
   <rect x="17" y="7" width="17515" height="7505"/>
  </clipPath>
 </defs>
 <defs class="TextShapeIndex">
  <g ooo:slide="id1" ooo:id-list="id3"/>
 </defs>
 <defs class="EmbeddedBulletChars">
  <g id="bullet-char-template-57356" transform="scale(0.00048828125,-0.00048828125)">
   <path d="M 580,1141 L 1163,571 580,0 -4,571 580,1141 Z"/>
  </g>
  <g id="bullet-char-template-57354" transform="scale(0.00048828125,-0.00048828125)">
   <path d="M 8,1128 L 1137,1128 1137,0 8,0 8,1128 Z"/>
  </g>
  <g id="bullet-char-template-10146" transform="scale(0.00048828125,-0.00048828125)">
   <path d="M 174,0 L 602,739 174,1481 1456,739 174,0 Z M 1358,739 L 309,1346 659,739 1358,739 Z"/>
  </g>
  <g id="bullet-char-template-10132" transform="scale(0.00048828125,-0.00048828125)">
   <path d="M 2015,739 L 1276,0 717,0 1260,543 174,543 174,936 1260,936 717,1481 1274,1481 2015,739 Z"/>
  </g>
  <g id="bullet-char-template-10007" transform="scale(0.00048828125,-0.00048828125)">
   <path d="M 0,-2 C -7,14 -16,27 -25,37 L 356,567 C 262,823 215,952 215,954 215,979 228,992 255,992 264,992 276,990 289,987 310,991 331,999 354,1012 L 381,999 492,748 772,1049 836,1024 860,1049 C 881,1039 901,1025 922,1006 886,937 835,863 770,784 769,783 710,716 594,584 L 774,223 C 774,196 753,168 711,139 L 727,119 C 717,90 699,76 672,76 641,76 570,178 457,381 L 164,-76 C 142,-110 111,-127 72,-127 30,-127 9,-110 8,-76 1,-67 -2,-52 -2,-32 -2,-23 -1,-13 0,-2 Z"/>
  </g>
  <g id="bullet-char-template-10004" transform="scale(0.00048828125,-0.00048828125)">
   <path d="M 285,-33 C 182,-33 111,30 74,156 52,228 41,333 41,471 41,549 55,616 82,672 116,743 169,778 240,778 293,778 328,747 346,684 L 369,508 C 377,444 397,411 428,410 L 1163,1116 C 1174,1127 1196,1133 1229,1133 1271,1133 1292,1118 1292,1087 L 1292,965 C 1292,929 1282,901 1262,881 L 442,47 C 390,-6 338,-33 285,-33 Z"/>
  </g>
  <g id="bullet-char-template-9679" transform="scale(0.00048828125,-0.00048828125)">
   <path d="M 813,0 C 632,0 489,54 383,161 276,268 223,411 223,592 223,773 276,916 383,1023 489,1130 632,1184 813,1184 992,1184 1136,1130 1245,1023 1353,916 1407,772 1407,592 1407,412 1353,268 1245,161 1136,54 992,0 813,0 Z"/>
  </g>
  <g id="bullet-char-template-8226" transform="scale(0.00048828125,-0.00048828125)">
   <path d="M 346,457 C 273,457 209,483 155,535 101,586 74,649 74,723 74,796 101,859 155,911 209,963 273,989 346,989 419,989 480,963 531,910 582,859 608,796 608,723 608,648 583,586 532,535 482,483 420,457 346,457 Z"/>
  </g>
  <g id="bullet-char-template-8211" transform="scale(0.00048828125,-0.00048828125)">
   <path d="M -4,459 L 1135,459 1135,606 -4,606 -4,459 Z"/>
  </g>
  <g id="bullet-char-template-61548" transform="scale(0.00048828125,-0.00048828125)">
   <path d="M 173,740 C 173,903 231,1043 346,1159 462,1274 601,1332 765,1332 928,1332 1067,1274 1183,1159 1299,1043 1357,903 1357,740 1357,577 1299,437 1183,322 1067,206 928,148 765,148 601,148 462,206 346,322 231,437 173,577 173,740 Z"/>
  </g>
 </defs>
 <defs class="TextEmbeddedBitmaps"/>
 <g>
  <g id="id2" class="Master_Slide">
   <g id="bg-id2" class="Background"/>
   <g id="bo-id2" class="BackgroundObjects"/>
  </g>
 </g>
 <g class="SlideGroup">
  <g>
   <g id="container-id1">
    <g id="id1" class="Slide" clip-path="url(#presentation_clip_path)">
     <g class="Page">
      <g class="Graphic">
       <g id="id3">
        <rect class="BoundingBox" stroke="none" fill="none" x="0" y="0" width="17546" height="7513"/>
        <defs>
         <clipPath id="clip_path_1" clipPathUnits="userSpaceOnUse">
          <path d="M 0,0 L 17545,0 17545,7512 0,7512 0,0 Z"/>
         </clipPath>
        </defs>
        <g clip-path="url(#clip_path_1)"/>
        <defs>
         <clipPath id="clip_path_2" clipPathUnits="userSpaceOnUse">
          <path d="M 0,0 L 17545,0 17545,7512 0,7512 0,0 Z"/>
         </clipPath>
        </defs>
        <g clip-path="url(#clip_path_2)">
         <path fill="rgb(255,255,255)" stroke="none" d="M 4564,458 C 4545,358 4478,234 4300,193 3844,90 3242,33 2599,29 2543,475 2496,1093 2496,1791 L 2497,2058 2497,2073 2565,2079 C 2598,2082 2611,2099 2615,2131 2620,2163 2624,2202 2624,2202 2624,2202 3848,2195 4643,2089 4686,1691 4645,891 4564,458 Z"/>
         <path fill="rgb(255,255,255)" stroke="none" d="M 2173,2648 L 2105,2642 C 2072,2639 2058,2622 2055,2590 2052,2565 2049,2544 2046,2519 L 2046,2519 C 1501,2519 886,2522 92,2628 199,3223 901,4570 2031,5146 2087,4700 2175,3613 2175,2915 L 2174,2663 2174,2648 2173,2648 Z"/>
         <path fill="rgb(255,255,255)" stroke="none" d="M 4584,2628 C 4477,3223 3775,4570 2645,5146 2589,4700 2496,3613 2496,2915 L 2500,2658 2499,2648 2565,2642 C 2598,2639 2611,2622 2615,2590 2618,2561 2624,2519 2624,2519 L 2624,2519 C 3169,2519 3789,2522 4584,2628 Z"/>
         <path fill="rgb(255,255,255)" stroke="none" d="M 1129,1313 C 1126,1319 1128,1328 1131,1333 1136,1332 1148,1329 1154,1325 1161,1321 1163,1318 1171,1312 1163,1312 1130,1312 1129,1313 L 1129,1313 Z"/>
         <path fill="rgb(255,255,255)" stroke="none" d="M 12,2089 C 802,2194 1493,2202 2036,2202 L 2046,2202 C 2046,2202 2051,2166 2055,2131 2059,2099 2072,2082 2105,2079 L 2174,2073 2174,2072 1118,1049 12,2089 Z M 1042,1394 C 1061,1394 1095,1378 1102,1374 L 1105,1380 C 1099,1383 1055,1417 1020,1417 1000,1418 993,1406 993,1395 993,1377 1007,1371 1021,1354 1017,1371 1017,1394 1042,1394 Z M 1346,1642 C 1344,1646 1341,1648 1340,1653 1336,1641 1343,1631 1343,1622 1343,1613 1336,1608 1326,1608 1311,1608 1269,1644 1294,1701 1293,1681 1300,1667 1304,1664 1307,1660 1311,1652 1310,1646 1318,1661 1320,1667 1320,1678 1320,1703 1301,1708 1310,1726 1311,1731 1313,1735 1316,1742 1316,1733 1317,1726 1319,1720 1320,1714 1330,1702 1331,1698 1333,1693 1333,1689 1332,1683 1340,1693 1345,1701 1345,1717 1345,1736 1337,1746 1334,1752 1332,1757 1329,1762 1328,1771 1323,1812 1302,1831 1275,1831 1258,1831 1245,1829 1234,1822 1234,1874 1173,1870 1173,1904 1173,1914 1179,1925 1186,1932 1192,1938 1217,1947 1227,1959 1213,1960 1199,1964 1191,1973 1213,1984 1212,1996 1215,2012 1194,2001 1184,2007 1178,2013 1171,2020 1175,2029 1167,2039 1164,2031 1158,2024 1149,2024 1139,2024 1120,2040 1120,2046 1119,2060 1112,2066 1098,2067 1089,2078 1091,2083 1091,2093 1083,2085 1081,2080 1085,2065 1075,2061 1076,2053 1079,2046 L 1075,2043 C 1070,2048 1064,2055 1051,2049 1046,2051 1039,2058 1038,2067 1034,2046 1042,2038 1045,2035 1043,2030 1046,2020 1055,2016 1055,2014 1054,2013 1054,2012 1047,2012 1040,2009 1038,2004 1031,2003 1021,2011 1019,2016 1019,2004 1029,1992 1036,1989 1045,1973 1061,1970 1070,1979 1076,1984 1088,1990 1101,1990 1114,1990 1126,1980 1129,1975 1132,1971 1133,1970 1134,1967 1137,1961 1143,1954 1129,1937 1119,1924 1093,1900 1092,1882 1091,1853 1105,1836 1119,1824 L 1108,1824 C 1089,1824 1087,1812 1068,1812 1053,1812 1045,1826 1045,1838 1045,1850 1047,1853 1051,1861 1057,1872 1059,1877 1058,1888 1047,1878 1030,1873 1017,1884 1012,1898 1009,1904 1000,1911 999,1899 975,1880 953,1900 951,1905 949,1916 933,1916 924,1916 925,1914 921,1913 915,1918 910,1924 908,1931 905,1920 909,1910 913,1905 911,1900 912,1888 919,1884 917,1882 917,1884 916,1881 906,1888 891,1889 884,1880 879,1881 873,1885 868,1897 866,1885 874,1872 880,1868 880,1859 893,1851 906,1854 907,1852 906,1851 907,1849 908,1847 906,1848 906,1848 903,1846 890,1846 891,1831 884,1828 877,1832 871,1836 876,1823 888,1819 896,1818 899,1813 909,1812 913,1812 922,1812 928,1816 930,1822 939,1837 960,1843 980,1843 990,1843 999,1835 999,1824 999,1813 979,1780 979,1764 979,1749 1007,1720 1026,1720 1083,1720 1096,1743 1109,1743 1126,1743 1129,1740 1132,1737 1105,1705 1088,1706 1062,1689 1049,1680 1043,1666 1041,1652 1025,1656 1009,1676 1002,1689 998,1683 993,1679 986,1679 974,1679 965,1695 959,1708 955,1693 945,1678 927,1678 916,1678 905,1683 902,1689 901,1690 901,1690 901,1691 899,1695 896,1697 892,1699 888,1701 885,1702 880,1702 878,1702 876,1702 874,1702 868,1705 863,1707 859,1723 854,1703 859,1699 862,1694 859,1680 865,1675 868,1672 L 866,1668 C 858,1671 846,1670 842,1663 833,1663 830,1664 822,1676 824,1662 832,1652 840,1649 843,1641 854,1638 863,1638 864,1636 864,1636 865,1634 865,1634 865,1634 865,1634 862,1632 859,1630 858,1627 856,1624 855,1621 855,1618 855,1617 855,1616 855,1616 848,1608 841,1613 834,1615 845,1604 859,1599 868,1604 887,1598 894,1607 895,1617 898,1629 917,1631 937,1631 980,1631 1050,1591 1045,1560 1034,1558 1033,1558 1025,1558 1002,1558 973,1586 950,1587 961,1574 954,1561 960,1552 948,1552 935,1559 911,1557 919,1553 925,1536 925,1530 925,1525 925,1513 899,1513 896,1514 889,1516 884,1516 878,1516 861,1515 861,1501 852,1500 846,1502 837,1508 839,1499 856,1488 861,1487 865,1480 872,1477 876,1477 877,1474 876,1477 877,1473 868,1472 857,1468 857,1454 851,1449 847,1447 833,1451 850,1438 856,1440 862,1442 875,1433 885,1438 889,1442 890,1440 892,1440 892,1439 889,1430 891,1421 895,1417 895,1407 890,1404 881,1402 900,1403 908,1407 914,1414 925,1415 932,1424 932,1431 932,1449 913,1461 950,1479 962,1485 978,1491 994,1496 1011,1500 1031,1507 1039,1507 1033,1498 1035,1488 1025,1478 1037,1477 1051,1481 1062,1484 1060,1470 1063,1469 1054,1461 1062,1462 1073,1462 1080,1463 1122,1467 1122,1447 1131,1421 1116,1422 1092,1425 1069,1440 1071,1433 1069,1426 1069,1420 1069,1408 1079,1405 1084,1405 1086,1405 1092,1404 1097,1404 1106,1404 1119,1394 1113,1374 1110,1365 1103,1359 1094,1361 1088,1363 1086,1363 1077,1366 1070,1369 1068,1374 1067,1381 1066,1378 1063,1369 1062,1367 1060,1364 1060,1362 1057,1356 1056,1354 1056,1354 1055,1352 1051,1342 1058,1333 1067,1332 1076,1330 1084,1328 1093,1325 1108,1321 1113,1315 1116,1308 1119,1300 1121,1297 1134,1297 1139,1297 1154,1297 1161,1297 1181,1297 1204,1281 1196,1264 1211,1267 1216,1289 1213,1297 1220,1297 1242,1293 1247,1289 1247,1304 1235,1322 1226,1327 1237,1328 1256,1326 1262,1321 1258,1333 1246,1357 1238,1360 1257,1367 1270,1377 1278,1399 1264,1394 1255,1401 1243,1399 1268,1428 1278,1473 1286,1484 1279,1480 1265,1473 1254,1469 1265,1493 1249,1517 1251,1530 1243,1526 1233,1520 1229,1514 1225,1524 1216,1543 1219,1568 1213,1561 1202,1556 1196,1552 1187,1566 1181,1574 1181,1609 1181,1656 1204,1702 1214,1720 1229,1747 1233,1771 1235,1780 1240,1799 1253,1811 1272,1811 1289,1811 1304,1795 1304,1777 1304,1742 1261,1720 1261,1660 1261,1620 1292,1601 1293,1575 1294,1553 1273,1567 1257,1557 1277,1553 1289,1531 1307,1532 1323,1533 1327,1541 1327,1549 1329,1560 1321,1572 1319,1577 1337,1562 1344,1540 1344,1528 1344,1511 1320,1492 1326,1460 1327,1456 1327,1456 1328,1454 1335,1490 1389,1500 1389,1536 1389,1570 1358,1564 1341,1587 1360,1580 1382,1583 1382,1604 1382,1622 1352,1633 1346,1642 Z"/>
         <path fill="rgb(255,255,255)" stroke="none" d="M 371,193 C 193,232 127,358 107,458 53,742 -18,1303 4,1879 114,1778 1125,825 1125,825 L 2175,1842 C 2175,1144 2128,475 2072,29 1427,34 822,95 371,193 Z M 527,398 C 547,398 581,381 589,378 L 591,384 C 586,386 541,421 505,422 485,422 478,410 478,399 478,381 492,375 507,357 502,375 502,398 527,398 Z M 838,650 C 835,654 832,657 831,661 827,649 834,639 834,630 834,620 827,616 817,616 801,616 759,652 785,711 783,690 791,676 794,672 798,668 801,661 800,655 809,669 810,676 810,687 810,712 792,717 800,736 802,741 804,745 806,752 806,743 808,735 810,729 811,723 821,712 822,707 824,702 824,698 823,692 831,702 837,711 837,727 837,746 828,756 825,762 823,767 820,773 819,782 814,823 793,843 765,843 748,843 734,840 723,833 723,887 661,882 661,917 661,927 667,938 674,945 681,951 706,961 716,972 702,973 687,978 679,987 702,998 701,1010 704,1027 682,1016 672,1022 666,1028 660,1035 663,1044 655,1055 652,1046 646,1039 636,1039 627,1039 607,1056 607,1061 606,1076 599,1081 585,1083 575,1094 578,1099 578,1109 569,1101 568,1095 571,1081 561,1077 562,1069 565,1061 L 561,1059 C 556,1063 550,1070 537,1064 532,1066 525,1074 524,1083 520,1061 527,1053 531,1050 529,1045 532,1035 541,1031 541,1029 541,1028 540,1027 533,1027 526,1024 524,1019 516,1017 506,1026 504,1031 504,1019 515,1006 522,1003 531,987 547,984 557,993 562,999 575,1004 588,1004 601,1004 613,994 617,989 620,985 620,984 622,981 625,975 630,967 617,951 606,938 579,912 579,894 578,864 592,847 606,835 L 595,835 C 575,835 574,823 554,823 539,823 531,838 531,850 531,862 533,865 537,873 543,884 546,890 544,901 532,891 516,886 503,897 498,911 495,917 485,923 484,912 459,893 437,913 435,918 433,929 417,929 408,929 409,927 405,926 399,931 393,937 391,945 388,933 392,923 397,918 395,913 395,900 402,897 400,895 401,896 399,893 389,901 374,902 367,893 362,894 356,898 350,909 349,897 357,884 363,880 363,871 376,863 389,866 390,864 389,863 391,861 392,859 390,860 390,860 386,858 374,858 374,842 367,840 360,843 354,848 359,835 371,830 379,830 383,824 392,823 397,823 406,823 412,828 414,833 423,849 444,854 465,854 475,854 484,847 484,835 484,824 464,790 464,775 464,759 492,730 511,730 569,730 583,753 596,753 614,753 616,750 619,747 592,714 574,715 548,698 535,689 528,674 526,660 510,664 495,685 487,698 483,692 478,688 471,688 458,688 449,704 443,718 439,702 429,687 411,687 400,687 388,692 385,698 385,699 385,699 384,700 382,704 379,706 375,709 372,711 368,712 363,712 361,712 359,711 357,711 351,715 346,716 342,733 337,712 342,708 345,703 342,689 348,684 351,681 L 349,677 C 341,680 328,679 325,672 315,671 312,673 304,684 306,671 314,660 322,657 326,649 337,646 346,646 346,644 347,644 347,642 347,642 347,642 347,642 344,640 342,638 340,635 339,632 338,629 338,626 338,625 338,624 338,623 331,615 323,620 317,623 328,611 341,607 350,612 370,606 377,614 379,625 381,637 401,639 421,639 465,639 536,599 531,567 520,564 519,565 511,565 487,565 457,594 434,594 446,581 439,568 445,559 432,558 419,566 394,564 403,559 408,543 408,537 408,531 408,519 382,519 379,520 372,522 367,522 361,522 343,521 343,507 335,505 328,507 319,514 321,505 339,493 344,493 348,485 355,482 359,483 359,479 359,482 360,478 351,477 339,474 340,459 333,453 329,452 315,456 333,443 339,445 345,447 358,438 368,443 372,447 373,445 375,445 375,443 372,434 374,425 378,421 378,411 373,408 364,406 383,407 391,411 398,418 409,419 416,429 416,436 416,454 397,466 434,485 446,491 463,496 479,501 496,506 516,513 525,513 518,503 521,494 510,484 522,483 537,487 548,489 546,475 549,475 540,466 548,467 560,467 566,468 609,472 610,452 618,426 603,426 579,430 555,445 558,437 555,431 555,424 555,412 565,409 570,409 573,409 579,408 584,408 593,408 606,398 600,378 597,368 590,362 581,365 574,367 573,366 564,370 556,372 554,378 553,385 552,382 549,372 548,370 547,367 546,366 543,359 542,357 543,357 541,355 537,345 544,336 553,334 561,333 573,330 580,328 595,323 600,318 603,310 606,302 608,299 622,299 626,299 642,300 649,300 669,300 693,283 685,266 700,268 705,291 702,300 708,300 731,295 736,291 736,306 724,325 715,329 726,331 746,329 752,324 748,336 735,360 727,364 747,370 759,380 768,403 753,398 745,405 732,403 758,433 768,478 776,490 769,486 754,478 744,474 755,499 738,524 741,537 733,532 722,526 718,520 714,530 705,550 708,575 702,568 690,563 685,559 675,572 669,581 669,617 669,665 692,711 702,730 718,758 722,782 724,791 729,810 743,822 761,822 779,822 794,806 794,787 794,752 750,730 750,669 750,628 782,608 783,582 784,560 763,574 747,564 767,560 779,538 797,539 814,539 817,548 818,556 819,567 812,579 810,584 828,569 836,546 836,535 836,517 810,498 817,465 818,461 818,461 819,459 826,496 881,505 881,542 881,577 850,570 832,595 851,587 873,591 873,611 873,630 844,641 838,650 Z M 1561,330 C 1581,330 1617,313 1624,310 L 1627,316 C 1621,319 1575,355 1537,355 1516,356 1509,343 1509,331 1509,313 1524,306 1539,288 1534,307 1534,330 1561,330 Z M 1884,593 C 1881,598 1878,600 1877,605 1873,592 1880,582 1880,573 1880,562 1873,557 1862,557 1846,557 1802,596 1828,657 1827,635 1835,621 1839,617 1842,613 1846,605 1845,598 1854,613 1855,620 1855,632 1855,658 1836,664 1845,683 1847,688 1848,693 1851,700 1851,690 1853,682 1855,676 1856,670 1867,658 1868,653 1869,650 1869,647 1869,644 1869,642 1869,639 1868,637 1877,647 1883,657 1883,673 1883,693 1874,704 1871,710 1869,716 1866,721 1864,731 1859,774 1837,794 1808,794 1790,794 1776,792 1765,784 1765,840 1699,836 1699,872 1699,882 1706,894 1713,901 1720,908 1747,917 1757,930 1742,930 1727,935 1719,945 1742,956 1742,969 1745,986 1722,975 1711,981 1705,987 1698,994 1702,1004 1694,1015 1690,1006 1684,999 1674,999 1664,999 1644,1016 1643,1022 1642,1037 1635,1043 1621,1045 1610,1056 1613,1061 1613,1072 1604,1063 1603,1058 1606,1042 1595,1038 1597,1030 1600,1022 L 1596,1019 C 1590,1024 1584,1031 1570,1025 1565,1027 1558,1035 1557,1045 1553,1022 1560,1014 1564,1011 1562,1005 1565,994 1575,990 1575,988 1574,987 1574,986 1566,986 1559,983 1556,978 1549,976 1538,985 1537,991 1537,978 1547,965 1555,962 1564,944 1581,941 1591,951 1597,957 1610,963 1624,963 1638,963 1650,952 1653,947 1657,943 1657,942 1659,938 1662,932 1668,924 1653,907 1642,893 1615,867 1614,848 1613,817 1628,799 1642,787 L 1631,787 C 1611,787 1609,774 1588,774 1573,774 1564,789 1564,802 1564,815 1566,817 1571,826 1577,837 1579,843 1578,855 1566,844 1549,839 1535,851 1530,866 1526,871 1517,879 1516,866 1490,847 1466,867 1464,873 1462,885 1446,885 1436,885 1437,882 1433,881 1426,886 1421,893 1419,901 1415,888 1420,878 1424,873 1423,867 1423,854 1430,851 1428,848 1429,850 1427,847 1417,855 1401,856 1394,846 1388,848 1382,852 1376,864 1375,851 1383,837 1389,833 1389,824 1403,815 1417,818 1418,817 1416,816 1418,814 1419,812 1417,812 1417,812 1413,810 1400,810 1401,794 1393,791 1386,795 1380,799 1386,786 1397,782 1406,781 1410,775 1420,774 1425,774 1434,774 1441,779 1442,784 1452,801 1474,806 1495,806 1506,806 1515,799 1515,787 1515,774 1494,740 1494,723 1494,707 1524,677 1544,677 1604,677 1618,701 1631,701 1651,701 1653,697 1656,694 1628,660 1609,661 1582,643 1569,634 1562,619 1560,604 1543,608 1526,630 1518,643 1515,637 1509,633 1502,633 1488,633 1479,650 1472,664 1469,648 1458,632 1439,632 1428,632 1415,637 1412,644 1412,644 1412,645 1411,645 1409,649 1406,652 1402,654 1398,657 1394,658 1389,658 1387,658 1385,657 1383,657 1377,661 1371,662 1367,680 1362,658 1367,654 1370,649 1367,634 1373,629 1376,626 L 1375,622 C 1366,624 1353,624 1349,616 1339,616 1336,617 1328,629 1330,615 1338,604 1347,601 1350,592 1362,589 1371,589 1372,587 1372,587 1373,585 1373,585 1373,585 1373,585 1370,583 1367,581 1365,578 1364,575 1363,572 1363,568 1363,567 1363,566 1363,566 1356,557 1347,562 1341,565 1352,553 1366,548 1376,554 1396,547 1403,556 1405,567 1408,580 1428,582 1449,582 1496,582 1569,540 1564,507 1553,504 1552,505 1543,505 1518,505 1487,535 1463,535 1475,522 1468,508 1474,498 1461,498 1447,506 1422,504 1430,499 1436,481 1436,475 1436,469 1436,457 1409,457 1406,458 1399,460 1393,460 1387,460 1369,458 1369,445 1360,443 1353,445 1343,452 1345,442 1364,430 1369,429 1373,422 1381,419 1385,419 1385,415 1385,419 1386,414 1376,413 1364,410 1365,394 1358,389 1354,387 1339,391 1357,378 1364,380 1370,382 1383,372 1394,378 1398,382 1400,380 1401,379 1402,378 1399,368 1401,359 1405,355 1405,345 1400,341 1390,339 1410,340 1418,344 1425,352 1437,353 1444,363 1444,370 1445,389 1424,402 1463,421 1476,427 1493,433 1510,438 1528,443 1549,451 1558,451 1551,441 1554,430 1543,420 1555,419 1571,423 1582,426 1580,411 1583,411 1573,402 1582,403 1594,403 1601,404 1645,408 1646,387 1655,359 1640,360 1614,364 1590,380 1592,372 1589,365 1589,358 1589,345 1600,343 1605,343 1607,343 1614,342 1619,342 1629,342 1642,331 1636,310 1633,300 1625,293 1616,296 1609,298 1608,298 1598,301 1591,304 1588,310 1587,317 1586,314 1583,304 1582,302 1580,299 1580,297 1577,290 1576,288 1576,288 1575,286 1570,275 1578,266 1587,264 1595,263 1608,260 1615,258 1631,253 1636,247 1639,239 1642,231 1645,228 1659,228 1663,228 1679,228 1687,228 1708,228 1733,211 1725,193 1740,195 1746,219 1742,228 1749,228 1773,224 1778,219 1778,235 1765,254 1756,259 1768,260 1788,259 1794,254 1790,266 1777,291 1769,295 1789,302 1802,312 1811,336 1796,330 1787,338 1774,336 1801,367 1811,414 1819,426 1812,422 1797,414 1786,410 1797,436 1780,462 1783,475 1774,471 1763,465 1759,458 1755,468 1745,489 1749,515 1742,508 1730,502 1725,498 1714,513 1708,522 1708,559 1708,609 1732,657 1743,676 1759,706 1763,730 1766,740 1771,760 1785,773 1804,773 1823,773 1839,756 1839,736 1839,700 1793,677 1793,613 1793,571 1826,550 1827,523 1828,499 1806,514 1789,503 1810,499 1823,476 1842,477 1859,478 1863,487 1864,495 1865,506 1857,520 1855,525 1873,509 1882,485 1882,473 1882,455 1856,435 1862,401 1863,396 1863,397 1864,394 1872,433 1929,443 1929,481 1929,517 1897,510 1878,535 1898,528 1921,531 1921,553 1921,573 1890,584 1884,593 Z"/>
         <path fill="rgb(255,255,255)" stroke="none" d="M 617,316 C 614,321 616,331 619,335 624,335 635,332 642,328 649,323 651,320 659,315 651,314 618,314 617,316 L 617,316 Z"/>
         <path fill="rgb(255,255,255)" stroke="none" d="M 1656,265 C 1661,265 1673,262 1679,258 1687,253 1689,250 1697,244 1690,243 1655,243 1654,245 1650,251 1652,261 1656,265 Z"/>
         <path fill="rgb(255,255,255)" stroke="none" d="M 6779,5296 L 6779,5351 C 6779,5351 6765,5349 6739,5349 6566,5349 6566,5448 6566,5596 L 6566,6259 C 6566,6327 6564,6393 6552,6448 6485,6770 6231,6855 5965,6855 5616,6855 5402,6684 5343,6442 5334,6403 5326,6326 5326,6233 L 5326,5557 C 5326,5401 5296,5355 5101,5351 L 5101,5299 C 5211,5306 5326,5308 5448,5308 5569,5308 5684,5306 5794,5299 L 5794,5351 5759,5351 C 5595,5351 5569,5428 5569,5557 L 5569,6270 C 5569,6353 5574,6425 5592,6486 5647,6668 5790,6776 6010,6776 6277,6776 6440,6674 6488,6440 6499,6389 6501,6332 6501,6268 L 6501,5596 C 6501,5405 6489,5351 6290,5351 L 6290,5297 C 6356,5301 6433,5303 6522,5303 6599,5303 6685,5303 6779,5296 Z"/>
         <path fill="rgb(255,255,255)" stroke="none" d="M 7860,6095 L 7860,6656 C 7860,6747 7906,6771 8028,6774 L 8028,6821 C 7923,6815 7834,6810 7759,6810 7689,6810 7598,6812 7488,6821 L 7488,6774 C 7607,6771 7656,6744 7656,6660 L 7656,6109 C 7656,5948 7584,5868 7436,5868 7277,5868 7142,6005 7142,6195 L 7142,6656 C 7142,6747 7188,6771 7310,6774 L 7310,6821 C 7205,6815 7116,6810 7041,6810 6971,6810 6880,6812 6770,6821 L 6770,6774 C 6889,6771 6936,6744 6936,6660 6936,6658 6938,6644 6938,6624 L 6938,6079 C 6938,5948 6917,5905 6791,5905 L 6770,5905 6770,5859 C 6861,5859 6966,5827 7097,5773 7115,5813 7128,5872 7130,6008 7151,5971 7255,5798 7516,5798 7723,5798 7860,5900 7860,6095 Z"/>
         <path fill="rgb(255,255,255)" stroke="none" d="M 8503,6656 C 8503,6742 8548,6769 8662,6774 L 8662,6821 C 8573,6815 8484,6810 8400,6810 8316,6810 8232,6815 8146,6821 L 8146,6774 C 8255,6769 8300,6742 8300,6660 L 8300,6113 8300,6057 C 8300,5945 8293,5905 8171,5905 L 8153,5905 8153,5859 C 8255,5850 8370,5821 8503,5773 L 8503,6624 8503,6656 Z M 8498,5319 C 8498,5383 8445,5435 8377,5435 8309,5435 8257,5383 8257,5319 8257,5253 8309,5201 8377,5201 8442,5201 8498,5253 8498,5319 Z"/>
         <path fill="rgb(255,255,255)" stroke="none" d="M 9174,5818 L 9174,5868 C 9087,5868 9050,5880 9050,5932 9050,5959 9064,6018 9104,6107 L 9321,6594 9424,6336 C 9504,6131 9558,6005 9558,5945 9558,5893 9518,5868 9436,5868 L 9436,5818 C 9492,5823 9565,5827 9619,5827 9668,5827 9755,5823 9814,5818 L 9814,5868 9799,5868 C 9677,5868 9644,5948 9576,6111 L 9274,6842 9223,6842 8844,5973 C 8813,5905 8778,5868 8659,5868 L 8659,5818 C 8748,5825 8845,5827 8920,5827 8997,5827 9099,5825 9174,5818 Z"/>
         <path fill="rgb(255,255,255)" stroke="none" d="M 10033,6311 C 10033,6583 10190,6765 10407,6765 10531,6765 10613,6722 10709,6615 L 10751,6658 C 10655,6790 10519,6853 10342,6853 10019,6853 9809,6629 9809,6343 9809,6055 10028,5794 10349,5794 10604,5794 10784,5952 10784,6177 L 10784,6197 10040,6197 C 10035,6245 10033,6281 10033,6311 Z M 10573,6079 C 10573,5927 10475,5841 10344,5841 10194,5841 10077,5950 10054,6131 L 10566,6131 C 10571,6102 10573,6084 10573,6079 Z"/>
         <path fill="rgb(255,255,255)" stroke="none" d="M 11773,5930 C 11773,5986 11737,6020 11691,6020 11585,6020 11639,5889 11508,5889 11380,5889 11272,6010 11272,6195 L 11272,6656 C 11272,6747 11319,6771 11440,6774 L 11440,6821 C 11335,6815 11244,6810 11169,6810 11099,6810 11010,6812 10900,6821 L 10900,6774 C 11019,6771 11069,6744 11069,6660 L 11069,6102 C 11069,5952 11031,5902 10903,5902 L 10877,5902 10877,5857 C 10984,5843 11097,5816 11216,5780 11245,5856 11255,5994 11253,6029 11300,5914 11417,5809 11583,5809 11702,5809 11773,5859 11773,5930 Z"/>
         <path fill="rgb(255,255,255)" stroke="none" d="M 12519,6073 L 12473,6073 C 12448,5941 12355,5843 12189,5843 12086,5843 12014,5907 12014,5982 12014,6094 12096,6115 12243,6186 12315,6221 12378,6248 12429,6279 12525,6336 12581,6409 12581,6524 12581,6719 12435,6853 12192,6853 12087,6853 11986,6819 11909,6760 L 11878,6824 11837,6824 C 11840,6740 11840,6690 11840,6672 11840,6635 11837,6583 11837,6513 L 11878,6513 C 11914,6692 12028,6799 12195,6799 12340,6799 12419,6710 12419,6615 12419,6496 12336,6461 12171,6386 11975,6295 11857,6237 11857,6068 11857,5913 12011,5794 12181,5794 12306,5794 12358,5814 12437,5855 L 12486,5798 12520,5798 12517,5926 12519,6073 Z"/>
         <path fill="rgb(255,255,255)" stroke="none" d="M 13111,6656 C 13111,6742 13155,6769 13270,6774 L 13270,6821 C 13181,6815 13097,6810 13013,6810 12928,6810 12844,6815 12758,6821 L 12758,6774 C 12868,6769 12912,6742 12912,6660 L 12912,6113 12912,6057 C 12912,5945 12905,5905 12784,5905 L 12765,5905 12765,5859 C 12868,5850 12977,5821 13111,5773 L 13111,6624 13111,6656 Z M 13111,5319 C 13111,5383 13057,5435 12989,5435 12921,5435 12870,5383 12870,5319 12870,5253 12921,5201 12989,5201 13055,5201 13111,5253 13111,5319 Z"/>
         <path fill="rgb(255,255,255)" stroke="none" d="M 13713,5821 L 13975,5821 13975,5889 13716,5889 13716,6572 C 13716,6708 13755,6776 13863,6776 13926,6776 13987,6742 14034,6672 L 14071,6706 C 14015,6803 13918,6844 13800,6844 13609,6844 13517,6749 13517,6561 L 13517,5889 13407,5889 13407,5852 C 13510,5794 13601,5698 13674,5571 L 13713,5571 13713,5821 Z"/>
         <path fill="rgb(255,255,255)" stroke="none" d="M 14526,5818 L 14526,5868 C 14433,5871 14391,5884 14391,5943 14391,5957 14398,5979 14407,6004 L 14641,6590 14863,6068 C 14879,6030 14886,5995 14887,5954 14887,5893 14851,5871 14765,5868 L 14765,5818 C 14835,5823 14891,5827 14929,5827 14975,5827 15053,5823 15114,5818 L 15114,5868 15107,5868 C 15004,5868 14989,5918 14942,6029 L 14641,6735 C 14426,7241 14334,7457 14227,7457 14189,7457 14154,7432 14154,7391 14154,7316 14233,7299 14290,7266 14348,7232 14398,7131 14498,6912 L 14542,6816 14206,6034 C 14163,5936 14156,5868 14037,5868 L 14037,5818 C 14126,5825 14196,5827 14257,5827 14292,5827 14383,5825 14526,5818 Z"/>
         <path fill="rgb(255,255,255)" stroke="none" d="M 4996,4657 C 5298,4650 5345,4579 5345,4336 L 5345,2770 C 5345,2526 5298,2455 4996,2448 L 4996,2367 C 5134,2370 5258,2374 5370,2374 5650,2374 5813,2360 6058,2360 6571,2360 6930,2489 7153,2738 7320,2926 7415,3178 7415,3516 7415,3897 7293,4196 7082,4404 6861,4621 6541,4738 6087,4738 5865,4738 5632,4728 5396,4728 5265,4728 5134,4728 4996,4735 L 4996,4657 4996,4657 Z M 5720,4167 C 5720,4491 5796,4650 6156,4650 6742,4650 6978,4219 6978,3521 6978,2705 6660,2437 6007,2437 5789,2437 5720,2437 5720,2631 L 5720,4167 5720,4167 Z"/>
         <path fill="rgb(255,255,255)" stroke="none" d="M 7844,3182 C 7920,3182 8018,3179 8128,3175 L 8128,4297 C 8128,4537 8244,4661 8469,4661 8717,4661 8928,4449 8928,4153 L 8928,3482 8928,3419 C 8928,3310 8851,3253 8695,3253 L 8666,3253 8666,3175 C 8779,3179 8880,3182 8968,3182 9044,3182 9139,3179 9248,3175 L 9248,4343 C 9248,4534 9276,4659 9458,4659 9472,4659 9477,4660 9492,4660 L 9492,4734 C 9315,4718 9180,4720 8947,4731 L 8939,4452 C 8797,4671 8604,4770 8346,4770 7927,4770 7807,4576 7807,4220 L 7807,3482 C 7807,3447 7804,3426 7804,3419 7804,3309 7727,3253 7575,3253 L 7545,3253 7545,3175 C 7658,3179 7756,3182 7844,3182 L 7844,3182 Z"/>
         <path fill="rgb(255,255,255)" stroke="none" d="M 10983,3357 C 10983,3445 10926,3489 10864,3489 10679,3489 10770,3285 10576,3285 10392,3285 10208,3454 10208,3761 L 10208,4477 C 10208,4618 10281,4657 10470,4661 L 10470,4735 C 10306,4724 10165,4717 10048,4717 9939,4717 9797,4721 9626,4735 L 9626,4661 C 9812,4657 9888,4615 9888,4484 L 9888,3616 C 9888,3384 9830,3306 9630,3306 L 9590,3306 9590,3235 C 9757,3214 9929,3192 10114,3136 10161,3238 10176,3439 10176,3504 10241,3357 10415,3161 10692,3161 10878,3161 10983,3260 10983,3357 Z"/>
         <path fill="rgb(255,255,255)" stroke="none" d="M 12061,3144 C 12403,3144 12600,3315 12600,3606 L 12600,4477 C 12600,4618 12672,4657 12861,4661 L 12861,4735 C 12698,4724 12556,4717 12440,4717 12330,4717 12189,4721 12018,4735 L 12018,4661 C 12203,4657 12279,4615 12279,4484 L 12279,3627 C 12279,3377 12167,3253 11938,3253 11690,3253 11476,3465 11476,3761 L 11476,4477 C 11476,4618 11548,4657 11738,4661 L 11738,4735 C 11574,4724 11432,4717 11315,4717 11206,4717 11065,4721 10894,4735 L 10894,4661 C 11079,4657 11155,4615 11155,4484 L 11155,2572 C 11155,2417 11083,2360 10894,2356 L 10894,2293 C 11006,2286 11199,2254 11476,2191 L 11476,3455 C 11586,3254 11810,3144 12061,3144 Z"/>
         <path fill="rgb(255,255,255)" stroke="none" d="M 13388,4763 C 13114,4763 12933,4622 12933,4409 12933,4176 13129,4033 13529,3882 L 13722,3811 C 13889,3748 13944,3751 13944,3628 L 13944,3551 C 13944,3329 13857,3211 13584,3211 13302,3211 13293,3329 13281,3428 13273,3491 13257,3563 13137,3563 13068,3563 13020,3507 13020,3433 13020,3281 13222,3140 13620,3140 14046,3140 14246,3271 14246,3546 L 14246,4442 C 14246,4580 14292,4637 14368,4637 14419,4637 14460,4614 14501,4562 L 14548,4611 C 14471,4728 14369,4763 14228,4763 14059,4763 13957,4670 13933,4536 13854,4619 13725,4763 13388,4763 Z M 13271,4347 C 13271,4513 13362,4637 13526,4637 13769,4637 13937,4483 13937,4307 L 13937,3804 C 13486,3977 13271,4128 13271,4347 Z"/>
         <path fill="rgb(255,255,255)" stroke="none" d="M 17283,3652 L 17283,4477 C 17283,4618 17356,4657 17545,4661 L 17545,4735 C 17381,4724 17239,4717 17123,4717 17014,4717 16872,4721 16701,4735 L 16701,4661 C 16886,4657 16959,4615 16959,4484 16959,4481 16963,4460 16963,4428 L 16963,3599 C 16963,3373 16854,3253 16646,3253 16391,3253 16217,3431 16217,3748 L 16217,4477 C 16217,4615 16290,4657 16472,4661 L 16472,4735 C 16315,4724 16177,4717 16057,4717 15926,4717 15795,4724 15653,4735 L 15653,4661 C 15824,4654 15897,4611 15897,4484 L 15897,3599 C 15897,3377 15788,3253 15581,3253 15329,3253 15152,3447 15152,3765 L 15152,4477 C 15152,4618 15224,4657 15413,4661 L 15413,4735 C 15250,4724 15108,4717 14992,4717 14882,4717 14756,4721 14585,4735 L 14585,4661 C 14770,4657 14831,4615 14831,4484 L 14831,3581 C 14831,3377 14799,3310 14602,3310 L 14570,3310 14570,3239 C 14712,3239 14879,3190 15083,3105 15112,3211 15126,3324 15126,3430 15126,3446 15127,3459 15126,3462 15222,3269 15450,3137 15701,3137 16064,3137 16183,3365 16185,3469 16238,3332 16428,3140 16758,3140 17125,3140 17283,3332 17283,3652 Z"/>
        </g>
        <g clip-path="url(#clip_path_1)"/>
       </g>
      </g>
     </g>
    </g>
   </g>
  </g>
 </g>
</svg>