<?xml version="1.0" encoding="UTF-8" standalone="no"?>
<svg
   xmlns:dc="http://purl.org/dc/elements/1.1/"
   xmlns:cc="http://creativecommons.org/ns#"
   xmlns:rdf="http://www.w3.org/1999/02/22-rdf-syntax-ns#"
   xmlns:svg="http://www.w3.org/2000/svg"
   xmlns="http://www.w3.org/2000/svg"
   id="svg877"
   version="1.1"
   viewBox="0 0 99.015892 24.762831"
   height="24.762831mm"
   width="99.015892mm">
  <defs
     id="defs871" />
  <metadata
     id="metadata874">
    <rdf:RDF>
      <cc:Work
         rdf:about="">
        <dc:format>image/svg+xml</dc:format>
        <dc:type
           rdf:resource="http://purl.org/dc/dcmitype/StillImage" />
        <dc:title></dc:title>
      </cc:Work>
    </rdf:RDF>
  </metadata>
  <g
     transform="translate(101.66866,-49.517394)"
     id="layer1">
    <g
       id="text861"
       style="font-style:normal;font-variant:normal;font-weight:normal;font-stretch:normal;font-size:10.58333302px;line-height:1.25;font-family:'Jost*';-inkscape-font-specification:'Jost*';letter-spacing:0px;word-spacing:0px;fill:#e91e63;fill-opacity:1;stroke:#e91e63;stroke-width:0;stroke-miterlimit:4;stroke-dasharray:none;stroke-dashoffset:0;stroke-opacity:1"
       aria-label="Hackathons">
      <path
         id="path1435"
         style="font-style:italic;font-variant:normal;font-weight:bold;font-stretch:normal;font-size:14.11111069px;font-family:'Jost*';-inkscape-font-specification:'Jost* Bold Italic';fill:#e91e63;fill-opacity:1;stroke:#e91e63;stroke-width:0;stroke-miterlimit:4;stroke-dasharray:none;stroke-dashoffset:0;stroke-opacity:1"
         d="m -100.00355,56.467323 -1.66511,9.877777 h 2.342442 l 0.705556,-4.148666 h 4.092222 l -0.705555,4.148666 h 2.342444 l 1.693333,-9.877777 h -2.370666 l -0.606778,3.598333 h -4.078111 l 0.620889,-3.598333 z" />
      <path
         id="path1437"
         style="font-style:italic;font-variant:normal;font-weight:bold;font-stretch:normal;font-size:14.11111069px;font-family:'Jost*';-inkscape-font-specification:'Jost* Bold Italic';fill:#e91e63;fill-opacity:1;stroke:#e91e63;stroke-width:0;stroke-miterlimit:4;stroke-dasharray:none;stroke-dashoffset:0;stroke-opacity:1"
         d="m -90.948187,63.099545 c -0.239889,1.862667 0.776111,3.386667 2.497667,3.386667 0.903111,0 1.693333,-0.423334 2.271889,-1.100667 l -0.169334,0.959555 h 2.088445 l 1.128888,-6.491111 h -2.102555 l -0.197556,1.171223 c -0.338666,-0.776111 -1.001888,-1.312334 -2.003777,-1.312334 -1.721556,0 -3.259667,1.453445 -3.513667,3.386667 z m 2.201333,0 c 0.141112,-0.903111 0.959556,-1.693333 1.834445,-1.665111 0.790222,0.02822 1.213555,0.804333 1.100666,1.665111 -0.141111,0.917222 -0.959555,1.679222 -1.778,1.665111 -0.874888,-0.01411 -1.284111,-0.818444 -1.157111,-1.665111 z" />
      <path
         id="path1439"
         style="font-style:italic;font-variant:normal;font-weight:bold;font-stretch:normal;font-size:14.11111069px;font-family:'Jost*';-inkscape-font-specification:'Jost* Bold Italic';fill:#e91e63;fill-opacity:1;stroke:#e91e63;stroke-width:0;stroke-miterlimit:4;stroke-dasharray:none;stroke-dashoffset:0;stroke-opacity:1"
         d="m -80.355593,63.099545 c 0.155222,-0.931333 0.987778,-1.679222 1.989666,-1.679222 0.691445,0 1.340556,0.352778 1.679223,0.945444 l 0.282222,-2.088444 c -0.508,-0.338667 -1.143,-0.564445 -1.989667,-0.564445 -2.088444,0 -3.852333,1.382889 -4.120444,3.386667 -0.254,1.961444 1.143,3.386667 3.189111,3.386667 0.860778,0 1.538111,-0.225778 2.088444,-0.592667 l 0.282223,-2.060222 c -0.493889,0.536222 -1.241778,0.959555 -2.032,0.931333 -0.931334,-0.02822 -1.509889,-0.733778 -1.368778,-1.665111 z" />
      <path
         id="path1441"
         style="font-style:italic;font-variant:normal;font-weight:bold;font-stretch:normal;font-size:14.11111069px;font-family:'Jost*';-inkscape-font-specification:'Jost* Bold Italic';fill:#e91e63;fill-opacity:1;stroke:#e91e63;stroke-width:0;stroke-miterlimit:4;stroke-dasharray:none;stroke-dashoffset:0;stroke-opacity:1"
         d="m -70.694333,59.853989 -2.596445,2.201334 1.157111,-6.716889 h -2.046111 L -76.042444,66.3451 h 2.017889 l 0.564444,-3.330222 2.046111,3.330222 h 2.384778 l -2.314222,-3.739444 3.245555,-2.751667 z" />
      <path
         id="path1443"
         style="font-style:italic;font-variant:normal;font-weight:bold;font-stretch:normal;font-size:14.11111069px;font-family:'Jost*';-inkscape-font-specification:'Jost* Bold Italic';fill:#e91e63;fill-opacity:1;stroke:#e91e63;stroke-width:0;stroke-miterlimit:4;stroke-dasharray:none;stroke-dashoffset:0;stroke-opacity:1"
         d="m -68.182999,63.099545 c -0.239889,1.862667 0.776111,3.386667 2.497667,3.386667 0.903111,0 1.693333,-0.423334 2.271889,-1.100667 l -0.169334,0.959555 h 2.088445 l 1.128889,-6.491111 h -2.102556 l -0.197555,1.171223 c -0.338667,-0.776111 -1.001889,-1.312334 -2.003778,-1.312334 -1.721556,0 -3.259667,1.453445 -3.513667,3.386667 z m 2.201334,0 c 0.141111,-0.903111 0.959555,-1.693333 1.834444,-1.665111 0.790222,0.02822 1.213556,0.804333 1.100667,1.665111 -0.141111,0.917222 -0.959556,1.679222 -1.778,1.665111 -0.874889,-0.01411 -1.284111,-0.818444 -1.157111,-1.665111 z" />
      <path
         id="path1445"
         style="font-style:italic;font-variant:normal;font-weight:bold;font-stretch:normal;font-size:14.11111069px;font-family:'Jost*';-inkscape-font-specification:'Jost* Bold Italic';fill:#e91e63;fill-opacity:1;stroke:#e91e63;stroke-width:0;stroke-miterlimit:4;stroke-dasharray:none;stroke-dashoffset:0;stroke-opacity:1"
         d="m -59.551849,59.853989 -0.310445,1.763889 h 1.100667 L -59.56596,66.3451 h 2.017888 l 0.818445,-4.727222 h 1.128889 l 0.310444,-1.763889 h -1.128889 l 0.395111,-2.257777 h -2.046111 l -0.381,2.257777 z" />
      <path
         id="path1447"
         style="font-style:italic;font-variant:normal;font-weight:bold;font-stretch:normal;font-size:14.11111069px;font-family:'Jost*';-inkscape-font-specification:'Jost* Bold Italic';fill:#e91e63;fill-opacity:1;stroke:#e91e63;stroke-width:0;stroke-miterlimit:4;stroke-dasharray:none;stroke-dashoffset:0;stroke-opacity:1"
         d="m -50.79458,62.393989 -0.691444,3.951111 h 2.102555 l 0.733778,-4.261555 c 0.197555,-1.411111 -0.268111,-2.455333 -1.834445,-2.455333 -0.903111,0 -1.566333,0.423333 -2.003777,1.044222 l 0.917222,-5.334 h -2.130778 L -55.592358,66.3451 h 2.116667 l 0.691444,-4.021666 c 0.183445,-0.592667 0.677334,-1.157111 1.326445,-1.114778 0.663222,0.04233 0.747889,0.578556 0.663222,1.185333 z" />
      <path
         id="path1449"
         style="font-style:italic;font-variant:normal;font-weight:bold;font-stretch:normal;font-size:14.11111069px;font-family:'Jost*';-inkscape-font-specification:'Jost* Bold Italic';fill:#e91e63;fill-opacity:1;stroke:#e91e63;stroke-width:0;stroke-miterlimit:4;stroke-dasharray:none;stroke-dashoffset:0;stroke-opacity:1"
         d="m -47.537999,63.099545 c -0.254,1.947333 1.143,3.386667 3.160889,3.386667 2.060222,0 3.824111,-1.397 4.078111,-3.386667 0.254,-1.947333 -1.128889,-3.386667 -3.160889,-3.386667 -2.060222,0 -3.824111,1.397 -4.078111,3.386667 z m 2.159,0 c 0.141111,-0.903111 0.903111,-1.651 1.763889,-1.636889 0.846667,0.01411 1.27,0.790222 1.157111,1.636889 -0.141111,0.903111 -0.903111,1.622778 -1.763889,1.608667 -0.846666,-0.01411 -1.27,-0.762 -1.157111,-1.608667 z" />
      <path
         id="path1451"
         style="font-style:italic;font-variant:normal;font-weight:bold;font-stretch:normal;font-size:14.11111069px;font-family:'Jost*';-inkscape-font-specification:'Jost* Bold Italic';fill:#e91e63;fill-opacity:1;stroke:#e91e63;stroke-width:0;stroke-miterlimit:4;stroke-dasharray:none;stroke-dashoffset:0;stroke-opacity:1"
         d="m -34.974702,62.393989 -0.691445,3.951111 h 2.187222 l 0.705556,-4.176888 c 0.211667,-1.397 -0.338667,-2.455334 -1.890889,-2.455334 -0.903111,0 -1.552222,0.395111 -2.003778,1.044223 l 0.141111,-0.903112 h -2.116666 L -39.77248,66.3451 h 2.116667 l 0.705555,-3.979333 c 0.112889,-0.691444 0.592667,-1.157111 1.27,-1.157111 0.705556,0 0.790222,0.592667 0.705556,1.185333 z" />
      <path
         id="path1453"
         style="font-style:italic;font-variant:normal;font-weight:bold;font-stretch:normal;font-size:14.11111069px;font-family:'Jost*';-inkscape-font-specification:'Jost* Bold Italic';fill:#e91e63;fill-opacity:1;stroke:#e91e63;stroke-width:0;stroke-miterlimit:4;stroke-dasharray:none;stroke-dashoffset:0;stroke-opacity:1"
         d="m -31.070997,64.002656 -1.044222,1.382889 c 0.832555,0.677333 1.890889,1.227667 3.231444,1.227667 1.453445,0 2.469445,-0.790223 2.582333,-2.130778 0.07056,-1.114778 -0.677333,-1.608667 -1.608666,-1.975556 -0.677333,-0.268111 -1.326445,-0.423333 -1.27,-0.889 0.02822,-0.254 0.296333,-0.451555 0.677333,-0.451555 0.592667,0 1.227667,0.409222 1.707445,0.889 l 0.874888,-1.368778 c -0.719666,-0.536222 -1.580444,-0.973667 -2.652888,-0.973667 -1.284111,0 -2.413,0.635 -2.525889,1.876778 -0.08467,1.114778 0.705555,1.679222 1.552222,1.989667 0.691444,0.239889 1.199444,0.465666 1.171222,0.917222 -0.01411,0.310444 -0.310444,0.550333 -0.691444,0.550333 -0.620889,0.02822 -1.27,-0.366889 -2.003778,-1.044222 z" />
    </g>
    <path
       id="path1231"
       d="m -13.398359,49.517395 c -0.0619,0 -10.691392,6.137225 -10.72235,6.190837 -0.031,0.05361 -0.031,12.327544 0,12.381157 0.031,0.05361 10.660438,6.190837 10.72235,6.190835 0.0619,0 10.6913795,-6.137222 10.7223405,-6.190835 0.031,-0.05361 0.031,-12.327544 0,-12.381157 -0.031001,-0.05361 -10.6604405,-6.190837 -10.7223405,-6.190837 z m -8.923491,7.273457 h 2.017959 v 6.518982 c 0,1.100667 0.607121,1.848466 1.764242,1.848466 1.15711,0 1.763709,-0.747799 1.763709,-1.848466 v -6.518982 h 2.031921 v 6.632155 c 0,2.328333 -1.62252,3.584276 -3.79563,3.584276 -2.173121,0 -3.782201,-1.255943 -3.782201,-3.584276 z m 9.634551,0 h 2.088248 v 4.007508 l 3.5134815,-4.007508 h 2.413291 l -4.09226,4.628143 4.289658,5.24929 h -2.455148 l -3.6690225,-4.473111 v 4.473111 h -2.088248 z"
       style="opacity:1;vector-effect:none;fill:#e91e63;fill-opacity:1;stroke:#e91e63;stroke-width:0;stroke-linecap:butt;stroke-linejoin:miter;stroke-miterlimit:4;stroke-dasharray:none;stroke-dashoffset:0;stroke-opacity:1;paint-order:fill markers stroke" />
  </g>
</svg>
