<svg data-name="Layer 1" xmlns="http://www.w3.org/2000/svg" viewBox="0 0 1140 200"><path d="M164.2 189.43a5.4 5.4 0 0 1 .48 5.58A5.25 5.25 0 0 1 160 198h-30c-5 0-8.82-.8-11.63-2.44a19.4 19.4 0 0 1-6.68-6.65L60.3 120.66a10.29 10.29 0 0 0-3.69-3.19c-.79-.37-2.71-1-6.75-1H44.4v76.13a5.3 5.3 0 0 1-5.25 5.4H5.25A5.29 5.29 0 0 1 0 192.61V7.26a5.29 5.29 0 0 1 5.25-5.34h33.9a5.3 5.3 0 0 1 5.25 5.34v72.42h2.68a15.55 15.55 0 0 0 5.92-.93 8.27 8.27 0 0 0 3.31-2.66l50.3-64.71a23.4 23.4 0 0 1 8.56-7.25 26.06 26.06 0 0 1 10.93-2.08h29.23a5.23 5.23 0 0 1 4.74 3 5.38 5.38 0 0 1-.66 5.66L98 87.73a64 64 0 0 1-5.49 6c.36.27.7.55 1 .84a45.58 45.58 0 0 1 7.37 8.12zm160.52-129.1a110.12 110.12 0 0 1 7 39.67 110 110 0 0 1-7 39.66 95.25 95.25 0 0 1-19.89 31.82 90.61 90.61 0 0 1-30.88 21 108.71 108.71 0 0 1-79.41 0 91.32 91.32 0 0 1-31-21 94.85 94.85 0 0 1-20-31.83 110 110 0 0 1-7-39.66 110.08 110.08 0 0 1 7-39.67 94.9 94.9 0 0 1 20-31.82 91 91 0 0 1 31-21A102.86 102.86 0 0 1 234.28 0 101.6 101.6 0 0 1 274 7.58a91.89 91.89 0 0 1 30.86 21 94.56 94.56 0 0 1 19.86 31.75zm-68.45 95.46a44.45 44.45 0 0 0 16.19-11.52 52.62 52.62 0 0 0 10.33-18.61 82.76 82.76 0 0 0 3.7-25.66 82.76 82.76 0 0 0-3.7-25.66 53.12 53.12 0 0 0-10.34-18.69 44.12 44.12 0 0 0-16.18-11.56 61.52 61.52 0 0 0-44.06 0 44.57 44.57 0 0 0-16.31 11.58 53.32 53.32 0 0 0-10.46 18.69 81.41 81.41 0 0 0-3.75 25.64 81.3 81.3 0 0 0 3.75 25.63 52.61 52.61 0 0 0 10.44 18.62 44.87 44.87 0 0 0 16.33 11.53 61.59 61.59 0 0 0 44.06 0zM543.81 2.05h-25.58c-1.66 0-3.1.05-4.31.15a15.66 15.66 0 0 0-4.43 1 11.6 11.6 0 0 0-4.34 3 19.34 19.34 0 0 0-2.89 4.22L448.32 113c-1.06 2-2.08 4.13-3.05 6.31-.92-2.07-1.9-4.1-2.94-6.07L387.9 10.38a17.87 17.87 0 0 0-3.06-4.33 12.11 12.11 0 0 0-4.3-2.88 15.51 15.51 0 0 0-4.43-1c-1.21-.1-2.64-.15-4.31-.15h-25.57A5.29 5.29 0 0 0 341 7.39v185.22a5.29 5.29 0 0 0 5.25 5.34H376a5.3 5.3 0 0 0 5.26-5.34V80l45.16 85.14a20 20 0 0 0 6.7 7.53 17.73 17.73 0 0 0 9.92 2.84h4.67a17.69 17.69 0 0 0 9.91-2.84 19.93 19.93 0 0 0 6.71-7.54l44.53-84.78v112.26a5.29 5.29 0 0 0 5.25 5.34h29.74a5.29 5.29 0 0 0 5.25-5.34V7.39a5.29 5.29 0 0 0-5.29-5.34zm202.77 58.28a110 110 0 0 1 7 39.67 110.07 110.07 0 0 1-7 39.66 95.28 95.28 0 0 1-19.9 31.81 90.49 90.49 0 0 1-30.88 21 108.69 108.69 0 0 1-79.4 0 91.36 91.36 0 0 1-31-21 94.85 94.85 0 0 1-20-31.83 110 110 0 0 1-7-39.66 110.08 110.08 0 0 1 7-39.67 94.9 94.9 0 0 1 20-31.82 91 91 0 0 1 31-21A102.86 102.86 0 0 1 656.14 0a101.69 101.69 0 0 1 39.69 7.58 91.74 91.74 0 0 1 30.85 21 94.5 94.5 0 0 1 19.9 31.75zm-68.45 95.46a44.48 44.48 0 0 0 16.2-11.52 52.6 52.6 0 0 0 10.32-18.61 82.47 82.47 0 0 0 3.7-25.66 82.47 82.47 0 0 0-3.7-25.66 53.26 53.26 0 0 0-10.33-18.69 44.28 44.28 0 0 0-16.19-11.56 61.52 61.52 0 0 0-44.06 0 44.57 44.57 0 0 0-16.31 11.58 53.15 53.15 0 0 0-10.45 18.69 81.12 81.12 0 0 0-3.76 25.64 81 81 0 0 0 3.76 25.63 52.45 52.45 0 0 0 10.44 18.62 44.92 44.92 0 0 0 16.32 11.53 61.59 61.59 0 0 0 44.06 0zm250-95.17a107.29 107.29 0 0 1 7.01 39.38 107.29 107.29 0 0 1-7.06 39.38 91.75 91.75 0 0 1-19.94 31.13 89.4 89.4 0 0 1-30.9 20.28 106.34 106.34 0 0 1-39.59 7.21h-69.56a5.29 5.29 0 0 1-5.25-5.34V7.39a5.29 5.29 0 0 1 5.25-5.34h69.56a105.54 105.54 0 0 1 39.61 7.23 88.71 88.71 0 0 1 50.82 51.34zm-68.43 95.17a44.4 44.4 0 0 0 16.18-11.53 52.86 52.86 0 0 0 10.39-18.63A81.09 81.09 0 0 0 890 100a81.2 81.2 0 0 0-3.77-25.64 53.17 53.17 0 0 0-10.39-18.64 44.76 44.76 0 0 0-16.18-11.51 56.69 56.69 0 0 0-22-4.07h-30.17v119.72h30.16a56.62 56.62 0 0 0 22-4.07zM1140 100a110.07 110.07 0 0 1-7 39.66 95.26 95.26 0 0 1-19.89 31.81 90.63 90.63 0 0 1-30.89 21 108.69 108.69 0 0 1-79.4 0 91 91 0 0 1-31-21 94.69 94.69 0 0 1-20-31.83 110 110 0 0 1-7-39.66 110.09 110.09 0 0 1 7-39.67 94.75 94.75 0 0 1 20-31.82 91 91 0 0 1 31-21A102.86 102.86 0 0 1 1042.51 0a101.61 101.61 0 0 1 39.69 7.58 91.74 91.74 0 0 1 30.85 21A94.68 94.68 0 0 1 1133 60.33a110.16 110.16 0 0 1 7 39.67zm-75.49 55.79a44.48 44.48 0 0 0 16.18-11.53 52.27 52.27 0 0 0 10.33-18.6 82.76 82.76 0 0 0 3.7-25.66 82.76 82.76 0 0 0-3.7-25.66 53.14 53.14 0 0 0-10.34-18.69 44 44 0 0 0-16.17-11.56 61.54 61.54 0 0 0-44.07 0 44.57 44.57 0 0 0-16.31 11.58 53.19 53.19 0 0 0-10.46 18.69 81.7 81.7 0 0 0-3.75 25.64 81.59 81.59 0 0 0 3.75 25.63 52.56 52.56 0 0 0 10.45 18.62 44.75 44.75 0 0 0 16.32 11.53 61.61 61.61 0 0 0 44.07 0z"/></svg>